<?xml version="1.0" encoding="utf-8"?>
<!-- Generator: Avocode 2.6.0 - http://avocode.com -->
<svg height="55" width="77" xmlns:xlink="http://www.w3.org/1999/xlink" xmlns="http://www.w3.org/2000/svg" viewBox="0 0 77 55">
    <path fill="#000000" fill-rule="evenodd" d="M 29.79 29.9 C 30.72 29.9 31.48 28.77 31.48 27.36 C 31.48 25.96 30.72 24.83 29.79 24.83 C 28.85 24.83 28.09 25.96 28.09 27.36 C 28.09 28.77 28.85 29.9 29.79 29.9 Z M 29.79 29.9" />
    <path fill="#000000" fill-rule="evenodd" d="M 46.77 29.9 C 47.71 29.9 48.47 28.77 48.47 27.36 C 48.47 25.96 47.71 24.83 46.77 24.83 C 45.83 24.83 45.07 25.96 45.07 27.36 C 45.07 28.77 45.83 29.9 46.77 29.9 Z M 46.77 29.9" />
    <path fill="#000000" fill-rule="evenodd" d="M 7.71 46.1 L 68.85 46.1 C 69.32 46.1 69.7 45.72 69.7 45.25 L 69.7 5.53 C 69.7 5.06 69.32 4.68 68.85 4.68 L 7.71 4.68 C 7.24 4.68 6.86 5.06 6.86 5.53 L 6.86 45.25 C 6.86 45.72 7.24 46.1 7.71 46.1 L 7.71 46.1 Z M 8.56 6.37 L 68 6.37 L 68 44.41 L 8.56 44.41 L 8.56 6.37 L 8.56 6.37 Z M 8.56 6.37" />
    <path fill="#000000" fill-rule="evenodd" d="M 73.95 47.79 L 73.1 47.79 L 73.1 4.68 C 73.1 2.35 71.19 0.45 68.85 0.45 L 7.7 0.45 C 5.36 0.45 3.46 2.35 3.46 4.68 L 3.46 47.79 L 2.61 47.79 C 1.2 47.79 0.06 48.92 0.06 50.32 L 0.06 52.01 C 0.06 53.41 1.2 54.55 2.61 54.55 L 73.95 54.55 C 75.35 54.55 76.49 53.41 76.49 52.01 L 76.49 50.32 C 76.5 48.92 75.35 47.79 73.95 47.79 L 73.95 47.79 Z M 7.71 2.14 L 68.85 2.14 C 70.26 2.14 71.4 3.28 71.4 4.68 L 71.4 47.79 L 43.37 47.79 C 42.91 47.79 42.52 48.17 42.52 48.63 C 42.52 48.84 42.52 49.48 39.98 49.48 L 36.58 49.48 C 34.03 49.48 34.03 48.84 34.03 48.63 C 34.03 48.17 33.65 47.79 33.18 47.79 L 5.16 47.79 L 5.16 4.68 C 5.16 3.28 6.3 2.14 7.71 2.14 L 7.71 2.14 Z M 73.95 52.86 L 2.61 52.86 C 2.14 52.86 1.76 52.48 1.76 52.01 L 1.76 50.32 C 1.76 49.86 2.14 49.48 2.61 49.48 L 32.48 49.48 C 33.11 51.17 35.66 51.17 36.58 51.17 L 39.98 51.17 C 40.9 51.17 43.45 51.17 44.08 49.48 L 73.95 49.48 C 74.42 49.48 74.8 49.86 74.8 50.32 L 74.8 52.01 C 74.8 52.48 74.42 52.86 73.95 52.86 L 73.95 52.86 Z M 73.95 52.86" />
    <path fill="#000000" fill-rule="evenodd" d="M 43.31 32.57 C 42.84 32.57 42.46 32.95 42.46 33.42 C 42.46 35.75 40.56 37.64 38.22 37.64 C 35.87 37.64 33.97 35.75 33.97 33.42 C 33.97 32.95 33.59 32.57 33.12 32.57 C 32.65 32.57 32.27 32.95 32.27 33.42 C 32.27 36.68 34.94 39.33 38.21 39.33 C 41.49 39.33 44.16 36.68 44.16 33.42 C 44.16 32.95 43.78 32.57 43.31 32.57 L 43.31 32.57 Z M 43.31 32.57" />
</svg>