<?xml version="1.0" encoding="UTF-8" standalone="no"?>
<!-- Generator: Avocode 2.5.2 - http://avocode.com -->

<svg
   xmlns:dc="http://purl.org/dc/elements/1.1/"
   xmlns:cc="http://creativecommons.org/ns#"
   xmlns:rdf="http://www.w3.org/1999/02/22-rdf-syntax-ns#"
   xmlns:svg="http://www.w3.org/2000/svg"
   xmlns="http://www.w3.org/2000/svg"
   xmlns:sodipodi="http://sodipodi.sourceforge.net/DTD/sodipodi-0.dtd"
   xmlns:inkscape="http://www.inkscape.org/namespaces/inkscape"
   height="171"
   width="267"
   viewBox="0 0 267 171"
   id="svg2"
   version="1.1"
   inkscape:version="0.91 r13725"
   sodipodi:docname="main-logo-2.svg">
  <metadata
     id="metadata14">
    <rdf:RDF>
      <cc:Work
         rdf:about="">
        <dc:format>image/svg+xml</dc:format>
        <dc:type
           rdf:resource="http://purl.org/dc/dcmitype/StillImage" />
      </cc:Work>
    </rdf:RDF>
  </metadata>
  <defs
     id="defs12" />
  <sodipodi:namedview
     pagecolor="#ffffff"
     bordercolor="#666666"
     borderopacity="1"
     objecttolerance="10"
     gridtolerance="10"
     guidetolerance="10"
     inkscape:pageopacity="0"
     inkscape:pageshadow="2"
     inkscape:window-width="1920"
     inkscape:window-height="1017"
     id="namedview10"
     showgrid="false"
     inkscape:zoom="2.3820225"
     inkscape:cx="37.667406"
     inkscape:cy="105.85538"
     inkscape:window-x="-8"
     inkscape:window-y="-8"
     inkscape:window-maximized="1"
     inkscape:current-layer="svg2" />
  <path
     d="M 59.99175,116.47206 C 40.199983,106.73417 20.829521,98.164436 20.829521,79.942989 c 0,-19.791768 -36.854626,-94.956437 39.162229,-66.087459 76.02643,28.859403 155.91163,-8.8474079 155.91163,50.585344 0,59.432756 -59.0689,79.033016 -97.54172,75.720026 C 74.249099,136.35 79.17071,125.90355 59.99175,116.47206 Z m 0,0"
     id="path4"
     inkscape:connector-curvature="0"
     style="fill:none;fill-rule:evenodd;stroke:#ffe400;stroke-width:13.40516376;stroke-linecap:butt;stroke-linejoin:miter" />
  <path
     d="m 60.594982,170.83 45.702038,0 0,-11.85399 -45.702038,0 0,11.85399 z m 4.653507,-132.864325 -6.693007,12.332751 -6.683431,-12.332751 -10.264526,0 0,40.004839 10.025148,0 0,-21.678065 4.423704,8.627181 5.007786,0 4.423704,-8.627181 0,21.678065 10.321976,0 0,-40.004839 -10.561354,0 z m 31.099981,0 0,40.004839 26.56137,0 0,-9.278288 -16.23939,0 0,-6.712157 13.49134,0 0,-9.278289 -13.49134,0 0,-5.457816 16.21067,0 0,-9.278289 -26.53265,0 z m -44.801973,60.811569 -9.747469,40.004836 10.302826,0 1.761821,-7.72712 9.259138,0 1.771397,7.72712 10.714556,0 -9.737894,-40.004836 -14.324375,0 z m 6.884509,12.102946 2.86296,12.2753 -5.658894,0 2.795934,-12.2753 z m 37.831288,-12.01677 0,9.27829 8.157996,0 0,30.72655 10.33155,0 0,-30.72655 8.158,0 0,-9.27829 -26.647546,0 z m 0,0"
     id="path6"
     inkscape:connector-curvature="0"
     style="fill:#ffffff;fill-rule:evenodd" />
  <path
     d="m 148.27433,82.001639 8.86656,0 c 7.14304,0 12.07422,-4.969486 12.07422,-11.365664 0,-6.453629 -4.93118,-11.356089 -12.07422,-11.356089 l -8.86656,0 0,22.721753 z m 4.99821,-4.50988 0,-13.701993 3.86835,0 c 4.08857,0 6.84621,2.82466 6.84621,6.846209 0,4.09815 -2.75764,6.855784 -6.84621,6.855784 l -3.86835,0 z m 28.12212,4.902459 c 3.15021,0 5.48654,-1.23519 7.10474,-3.245964 l -2.82466,-2.499106 c -1.35967,1.263916 -2.56613,1.780972 -4.21305,1.780972 -2.21186,0 -3.7726,-1.168164 -4.26093,-3.408742 l 12.11252,0 c 0.0383,-0.45003 0.067,-0.909636 0.067,-1.29264 0,-4.940761 -2.66189,-9.450641 -8.47398,-9.450641 -5.06524,0 -8.60803,4.088575 -8.60803,9.058061 0,5.390791 3.86835,9.05806 9.09636,9.05806 l 0,0 z m -4.25135,-10.456027 c 0.383,-2.240578 1.71394,-3.695996 3.76302,-3.695996 2.0778,0 3.38002,1.484144 3.66727,3.695996 l -7.43029,0 z m 22.01319,10.389002 c 3.76302,0 6.65471,-1.752247 6.65471,-5.611019 0,-3.25554 -2.82466,-4.423704 -5.26632,-5.228014 -1.87672,-0.651108 -3.53321,-1.110713 -3.53321,-2.0778 0,-0.746859 0.6128,-1.273491 1.81927,-1.273491 1.26391,0 2.98743,0.622383 4.70138,1.62777 l 1.8863,-3.408742 c -1.8863,-1.263915 -4.28965,-2.010774 -6.49193,-2.010774 -3.50449,0 -6.36745,1.972474 -6.36745,5.515267 0,3.437467 2.75763,4.576906 5.19928,5.29504 1.91503,0.584082 3.60025,0.938361 3.60025,2.010775 0,0.84261 -0.65111,1.359666 -2.0778,1.359666 -1.6182,0 -3.60025,-0.708558 -5.48654,-2.0778 l -2.10653,3.245964 c 2.29803,1.819273 5.02694,2.633158 7.46859,2.633158 l 0,0 z m 10.28368,-19.638566 5.19929,0 0,-4.385403 -5.19929,0 0,4.385403 z m 0.13405,19.313012 4.93118,0 0,-17.397988 -4.93118,0 0,17.397988 z m 17.36926,5.266314 c 3.38002,0 5.87912,-0.718134 7.49732,-2.345904 1.46499,-1.455417 2.21185,-3.734295 2.21185,-6.846208 l 0,-13.47219 -4.93118,0 0,2.269303 c -1.33095,-1.464993 -2.92999,-2.594857 -5.6206,-2.594857 -3.99282,0 -7.72712,2.920411 -7.72712,8.119699 0,5.218439 3.66727,8.17715 7.72712,8.17715 2.63316,0 4.22263,-1.072413 5.67805,-2.824659 l 0,0.84261 c 0,3.121488 -1.58947,4.739683 -4.95991,4.739683 -2.30761,0 -4.09815,-0.584082 -5.87913,-1.589469 l -1.68522,3.70557 c 2.20228,1.168164 4.86416,1.819272 7.68882,1.819272 l 0,0 z m 0.58408,-10.781582 c -2.40335,0 -4.22262,-1.62777 -4.22262,-4.031124 0,-2.43208 1.81927,-4.088575 4.22262,-4.088575 2.40336,0 4.25136,1.656495 4.25136,4.031124 0,2.43208 -1.848,4.088575 -4.25136,4.088575 l 0,0 z m 13.53922,5.515268 4.94076,0 0,-9.709169 c 0,-2.336329 1.19689,-3.533218 3.08319,-3.533218 1.87672,0 2.98743,1.196889 2.98743,3.533218 l 0,9.709169 4.93119,0 0,-11.260338 c 0,-3.992824 -2.17355,-6.463204 -5.90785,-6.463204 -2.4991,0 -3.9641,1.330941 -5.09396,2.786359 l 0,-2.460805 -4.94076,0 0,17.397988 z M 156.35573,113.2261 c 4.90246,0 8.3495,-2.52784 8.3495,-7.03772 0,-4.03112 -2.59486,-5.68762 -7.21006,-6.884505 -3.9258,-1.005387 -4.90246,-1.493718 -4.90246,-2.987436 0,-1.168165 1.00538,-2.049075 2.92041,-2.049075 1.91502,0 3.89707,0.84261 5.90785,2.240577 l 2.60443,-3.763021 c -2.30761,-1.857573 -5.13227,-2.891685 -8.44526,-2.891685 -4.64393,0 -7.95692,2.728908 -7.95692,6.846208 0,4.576907 2.95871,5.850397 7.53562,7.018557 3.80132,0.97667 4.5769,1.6182 4.5769,2.89169 0,1.38839 -1.23519,2.20228 -3.27469,2.20228 -2.60443,0 -4.74925,-1.07242 -6.78875,-2.75764 l -2.95871,3.5428 c 2.7289,2.43208 6.20467,3.62897 9.64214,3.62897 l 0,0 z m 17.89589,-0.0287 c 1.6565,0 2.85339,-0.39258 3.89708,-1.00539 l 0,-3.9641 c -0.71814,0.39258 -1.53202,0.62239 -2.44166,0.62239 -1.10114,0 -1.58947,-0.55536 -1.58947,-1.6948 l 0,-7.43029 4.08858,0 0,-4.222626 -4.08858,0 0,-4.45243 -4.93118,0 0,4.45243 -2.07781,0 0,4.222626 2.07781,0 0,8.24418 c 0,4.02155 2.0395,5.22801 5.06523,5.22801 l 0,0 z m 13.37644,0.0287 c 2.49911,0 3.95452,-1.33095 5.09396,-2.78636 l 0,2.4608 4.94076,0 0,-17.397986 -4.94076,0 0,9.709166 c 0,2.33633 -1.19689,3.53322 -3.08318,3.53322 -1.8863,0 -2.98744,-1.19689 -2.98744,-3.53322 l 0,-9.709166 -4.93119,0 0,11.269916 c 0,3.99282 2.17356,6.45363 5.90785,6.45363 l 0,0 z m 21.59189,0 c 2.56613,0 4.22263,-1.19689 5.41952,-2.82466 l 0,2.4991 4.93118,0 0,-23.698413 -4.93118,0 0,8.56973 C 213.4713,96.373889 211.84353,95.177 209.21995,95.177 c -4.12688,0 -7.9282,3.178939 -7.9282,8.99103 0,5.87913 3.86835,9.05807 7.9282,9.05807 l 0,0 z m 1.26392,-4.18433 c -2.30761,0 -4.25136,-1.91502 -4.25136,-4.80671 0,-2.98744 1.94375,-4.873734 4.25136,-4.873734 2.3076,0 4.22262,1.915024 4.22262,4.806704 0,2.95872 -1.91502,4.87374 -4.22262,4.87374 l 0,0 z m 13.60624,-15.45424 5.18971,0 0,-4.385403 -5.18971,0 0,4.385403 z m 0.12447,19.31301 4.94076,0 0,-17.397986 -4.94076,0 0,17.397986 z m 17.82887,0.39258 c 3.15021,0 5.48654,-1.23519 7.11431,-3.24596 l -2.82466,-2.49911 c -1.36924,1.26392 -2.56613,1.78097 -4.22262,1.78097 -2.21185,0 -3.7726,-1.16816 -4.25135,-3.40874 l 12.10294,0 c 0.0383,-0.45003 0.067,-0.90963 0.067,-1.29264 0,-4.94076 -2.66188,-9.45064 -8.47398,-9.45064 -5.06524,0 -8.60803,4.088575 -8.60803,9.05806 0,5.39079 3.86835,9.05806 9.09636,9.05806 l 0,0 z m -4.25135,-10.45603 c 0.383,-2.24057 1.71395,-3.695992 3.76302,-3.695992 2.0778,0 3.38002,1.493722 3.66727,3.695992 l -7.43029,0 z m 22.01319,10.38901 c 3.76302,0 6.65471,-1.75225 6.65471,-5.61102 0,-3.24597 -2.82466,-4.41413 -5.25674,-5.22802 -1.8863,-0.6511 -3.54279,-1.11071 -3.54279,-2.0778 0,-0.746857 0.6128,-1.263913 1.81927,-1.263913 1.26392,0 2.98744,0.612808 4.71096,1.618193 l 1.87672,-3.40874 c -1.87672,-1.263915 -4.28008,-2.010774 -6.49193,-2.010774 -3.50449,0 -6.36745,1.982049 -6.36745,5.515264 0,3.44705 2.76721,4.57691 5.19929,5.29504 1.91502,0.58408 3.60024,0.93836 3.60024,2.01078 0,0.84261 -0.64153,1.36924 -2.0778,1.36924 -1.61819,0 -3.60024,-0.71813 -5.48654,-2.0778 l -2.10653,3.24596 c 2.30761,1.81928 5.02694,2.62359 7.46859,2.62359 l 0,0 z m 0,0"
     id="path8"
     inkscape:connector-curvature="0"
     style="fill:#ffffff;fill-rule:evenodd" />
</svg>
