<?xml version="1.0" encoding="utf-8"?>
<!-- Generator: Avocode 2.5.2 - http://avocode.com -->
<svg height="171" width="266" xmlns:xlink="http://www.w3.org/1999/xlink" xmlns="http://www.w3.org/2000/svg" viewBox="0 0 266 171">
    <path stroke-linejoin="miter" stroke-linecap="butt" stroke-width="14" stroke="#ffe400" fill="none" fill-rule="evenodd" d="M 50.83 114.06 C 30.16 103.89 9.93 94.94 9.93 75.91 C 9.93 55.24 -28.56 -23.26 50.83 6.89 C 130.23 37.03 213.66 -2.35 213.66 59.72 C 213.66 121.79 151.97 142.26 111.79 138.8 C 65.72 134.82 70.86 123.91 50.83 114.06 Z M 50.83 114.06" />
    <path fill="#020202" fill-rule="evenodd" d="M 51.46 170.83 L 99.19 170.83 L 99.19 158.45 L 51.46 158.45 L 51.46 170.83 Z M 56.32 32.07 L 49.33 44.95 L 42.35 32.07 L 31.63 32.07 L 31.63 73.85 L 42.1 73.85 L 42.1 51.21 L 46.72 60.22 L 51.95 60.22 L 56.57 51.21 L 56.57 73.85 L 67.35 73.85 L 67.35 32.07 L 56.32 32.07 Z M 88.8 32.07 L 88.8 73.85 L 116.54 73.85 L 116.54 64.16 L 99.58 64.16 L 99.58 57.15 L 113.67 57.15 L 113.67 47.46 L 99.58 47.46 L 99.58 41.76 L 116.51 41.76 L 116.51 32.07 L 88.8 32.07 Z M 42.01 95.58 L 31.83 137.36 L 42.59 137.36 L 44.43 129.29 L 54.1 129.29 L 55.95 137.36 L 67.14 137.36 L 56.97 95.58 L 42.01 95.58 Z M 49.2 108.22 L 52.19 121.04 L 46.28 121.04 L 49.2 108.22 Z M 88.71 95.67 L 88.71 105.36 L 97.23 105.36 L 97.23 137.45 L 108.02 137.45 L 108.02 105.36 L 116.54 105.36 L 116.54 95.67 L 88.71 95.67 Z M 88.71 95.67" />
    <text font-weight="700" font-size="34" font-family="Gotham Pro" fill="#000000" y="112" x="141">
        <tspan>Design
Studies</tspan>
    </text>
</svg>