<?xml version="1.0" encoding="utf-8"?>
<!-- Generator: Avocode 2.5.2 - http://avocode.com -->
<svg height="112" width="173" xmlns:xlink="http://www.w3.org/1999/xlink" xmlns="http://www.w3.org/2000/svg" viewBox="0 0 173 112">
    <path stroke-linejoin="miter" stroke-linecap="butt" stroke-width="10" stroke="#ffe400" fill="none" fill-rule="evenodd" d="M 33.19 74.49 C 19.81 67.91 6.72 62.11 6.72 49.79 C 6.72 36.41 -18.18 -14.41 33.19 5.1 C 84.56 24.62 138.55 -0.87 138.55 39.31 C 138.55 79.5 98.63 92.75 72.63 90.5 C 42.82 87.93 46.15 80.86 33.19 74.49 Z M 33.19 74.49" />
    <path fill="#ffffff" fill-rule="evenodd" d="M 33.59 111.24 L 64.48 111.24 L 64.48 103.23 L 33.59 103.23 L 33.59 111.24 Z M 36.73 21.41 L 32.22 29.75 L 27.7 21.41 L 20.76 21.41 L 20.76 48.46 L 27.54 48.46 L 27.54 33.8 L 30.52 39.63 L 33.91 39.63 L 36.9 33.8 L 36.9 48.46 L 43.87 48.46 L 43.87 21.41 L 36.73 21.41 Z M 57.75 21.41 L 57.75 48.46 L 75.7 48.46 L 75.7 42.18 L 64.73 42.18 L 64.73 37.65 L 73.84 37.65 L 73.84 31.37 L 64.73 31.37 L 64.73 27.69 L 75.68 27.69 L 75.68 21.41 L 57.75 21.41 Z M 27.48 62.53 L 20.89 89.58 L 27.85 89.58 L 29.04 84.35 L 35.3 84.35 L 36.5 89.58 L 43.74 89.58 L 37.15 62.53 L 27.48 62.53 Z M 32.13 70.71 L 34.07 79.01 L 30.24 79.01 L 32.13 70.71 Z M 57.69 62.58 L 57.69 68.86 L 63.21 68.86 L 63.21 89.63 L 70.19 89.63 L 70.19 68.86 L 75.7 68.86 L 75.7 62.58 L 57.69 62.58 Z M 57.69 62.58" />
    <text font-weight="700" font-size="22" font-family="Gotham Pro" fill="#ffffff" y="74" x="91">
        <tspan>Design
Studies</tspan>
    </text>
</svg>