<?xml version="1.0" encoding="utf-8"?>
<!-- Generator: Avocode 2.5.2 - http://avocode.com -->
<svg height="171" width="267" xmlns:xlink="http://www.w3.org/1999/xlink" xmlns="http://www.w3.org/2000/svg" viewBox="0 0 267 171">
    <path stroke-linejoin="miter" stroke-linecap="butt" stroke-width="14" stroke="#ffe400" fill="none" fill-rule="evenodd" d="M 50.83 114.06 C 30.16 103.89 9.93 94.94 9.93 75.91 C 9.93 55.24 -28.56 -23.26 50.83 6.89 C 130.23 37.03 213.66 -2.35 213.66 59.72 C 213.66 121.79 151.97 142.26 111.79 138.8 C 65.72 134.82 70.86 123.91 50.83 114.06 Z M 50.83 114.06" />
    <path fill="#020202" fill-rule="evenodd" d="M 51.46 170.83 L 99.19 170.83 L 99.19 158.45 L 51.46 158.45 L 51.46 170.83 Z M 56.32 32.07 L 49.33 44.95 L 42.35 32.07 L 31.63 32.07 L 31.63 73.85 L 42.1 73.85 L 42.1 51.21 L 46.72 60.22 L 51.95 60.22 L 56.57 51.21 L 56.57 73.85 L 67.35 73.85 L 67.35 32.07 L 56.32 32.07 Z M 88.8 32.07 L 88.8 73.85 L 116.54 73.85 L 116.54 64.16 L 99.58 64.16 L 99.58 57.15 L 113.67 57.15 L 113.67 47.46 L 99.58 47.46 L 99.58 41.76 L 116.51 41.76 L 116.51 32.07 L 88.8 32.07 Z M 42.01 95.58 L 31.83 137.36 L 42.59 137.36 L 44.43 129.29 L 54.1 129.29 L 55.95 137.36 L 67.14 137.36 L 56.97 95.58 L 42.01 95.58 Z M 49.2 108.22 L 52.19 121.04 L 46.28 121.04 L 49.2 108.22 Z M 88.71 95.67 L 88.71 105.36 L 97.23 105.36 L 97.23 137.45 L 108.02 137.45 L 108.02 105.36 L 116.54 105.36 L 116.54 95.67 L 88.71 95.67 Z M 88.71 95.67" />
    <path fill="#000000" fill-rule="evenodd" d="M 143.03 78.06 L 152.29 78.06 C 159.75 78.06 164.9 72.87 164.9 66.19 C 164.9 59.45 159.75 54.33 152.29 54.33 L 143.03 54.33 L 143.03 78.06 Z M 148.25 73.35 L 148.25 59.04 L 152.29 59.04 C 156.56 59.04 159.44 61.99 159.44 66.19 C 159.44 70.47 156.56 73.35 152.29 73.35 L 148.25 73.35 Z M 177.62 78.47 C 180.91 78.47 183.35 77.18 185.04 75.08 L 182.09 72.47 C 180.67 73.79 179.41 74.33 177.69 74.33 C 175.38 74.33 173.75 73.11 173.24 70.77 L 185.89 70.77 C 185.93 70.3 185.96 69.82 185.96 69.42 C 185.96 64.26 183.18 59.55 177.11 59.55 C 171.82 59.55 168.12 63.82 168.12 69.01 C 168.12 74.64 172.16 78.47 177.62 78.47 L 177.62 78.47 Z M 173.18 67.55 C 173.58 65.21 174.97 63.69 177.11 63.69 C 179.28 63.69 180.64 65.24 180.94 67.55 L 173.18 67.55 Z M 196.17 78.4 C 200.1 78.4 203.12 76.57 203.12 72.54 C 203.12 69.14 200.17 67.92 197.62 67.08 C 195.66 66.4 193.93 65.92 193.93 64.91 C 193.93 64.13 194.57 63.58 195.83 63.58 C 197.15 63.58 198.95 64.23 200.74 65.28 L 202.71 61.72 C 200.74 60.4 198.23 59.62 195.93 59.62 C 192.27 59.62 189.28 61.68 189.28 65.38 C 189.28 68.97 192.16 70.16 194.71 70.91 C 196.71 71.52 198.47 71.89 198.47 73.01 C 198.47 73.89 197.79 74.43 196.3 74.43 C 194.61 74.43 192.54 73.69 190.57 72.26 L 188.37 75.65 C 190.77 77.55 193.62 78.4 196.17 78.4 L 196.17 78.4 Z M 206.91 57.89 L 212.34 57.89 L 212.34 53.31 L 206.91 53.31 L 206.91 57.89 Z M 207.05 78.06 L 212.2 78.06 L 212.2 59.89 L 207.05 59.89 L 207.05 78.06 Z M 225.19 83.56 C 228.72 83.56 231.33 82.81 233.02 81.11 C 234.55 79.59 235.33 77.21 235.33 73.96 L 235.33 59.89 L 230.18 59.89 L 230.18 62.26 C 228.79 60.73 227.12 59.55 224.31 59.55 C 220.14 59.55 216.24 62.6 216.24 68.03 C 216.24 73.48 220.07 76.57 224.31 76.57 C 227.06 76.57 228.72 75.45 230.24 73.62 L 230.24 74.5 C 230.24 77.76 228.58 79.45 225.06 79.45 C 222.65 79.45 220.78 78.84 218.92 77.79 L 217.16 81.66 C 219.46 82.88 222.24 83.56 225.19 83.56 L 225.19 83.56 Z M 225.8 72.3 C 223.29 72.3 221.39 70.6 221.39 68.09 C 221.39 65.55 223.29 63.82 225.8 63.82 C 228.31 63.82 230.24 65.55 230.24 68.03 C 230.24 70.57 228.31 72.3 225.8 72.3 L 225.8 72.3 Z M 239.94 78.06 L 245.1 78.06 L 245.1 67.92 C 245.1 65.48 246.35 64.23 248.32 64.23 C 250.28 64.23 251.44 65.48 251.44 67.92 L 251.44 78.06 L 256.59 78.06 L 256.59 66.3 C 256.59 62.13 254.32 59.55 250.42 59.55 C 247.81 59.55 246.28 60.94 245.1 62.46 L 245.1 59.89 L 239.94 59.89 L 239.94 78.06 Z M 151.47 110.67 C 156.59 110.67 160.19 108.03 160.19 103.32 C 160.19 99.11 157.48 97.38 152.66 96.13 C 148.56 95.08 147.54 94.57 147.54 93.01 C 147.54 91.79 148.59 90.87 150.59 90.87 C 152.59 90.87 154.66 91.75 156.76 93.21 L 159.48 89.28 C 157.07 87.34 154.12 86.26 150.66 86.26 C 145.81 86.26 142.35 89.11 142.35 93.41 C 142.35 98.19 145.44 99.52 150.22 100.74 C 154.19 101.76 155 102.43 155 103.76 C 155 105.21 153.71 106.06 151.58 106.06 C 148.86 106.06 146.62 104.94 144.49 103.18 L 141.4 106.88 C 144.25 109.42 147.88 110.67 151.47 110.67 L 151.47 110.67 Z M 170.16 110.64 C 171.89 110.64 173.14 110.23 174.23 109.59 L 174.23 105.45 C 173.48 105.86 172.63 106.1 171.68 106.1 C 170.53 106.1 170.02 105.52 170.02 104.33 L 170.02 96.57 L 174.29 96.57 L 174.29 92.16 L 170.02 92.16 L 170.02 87.51 L 164.87 87.51 L 164.87 92.16 L 162.7 92.16 L 162.7 96.57 L 164.87 96.57 L 164.87 105.18 C 164.87 109.38 167 110.64 170.16 110.64 L 170.16 110.64 Z M 184.13 110.67 C 186.74 110.67 188.26 109.28 189.45 107.76 L 189.45 110.33 L 194.61 110.33 L 194.61 92.16 L 189.45 92.16 L 189.45 102.3 C 189.45 104.74 188.2 105.99 186.23 105.99 C 184.26 105.99 183.11 104.74 183.11 102.3 L 183.11 92.16 L 177.96 92.16 L 177.96 103.93 C 177.96 108.1 180.23 110.67 184.13 110.67 L 184.13 110.67 Z M 206.68 110.67 C 209.36 110.67 211.09 109.42 212.34 107.72 L 212.34 110.33 L 217.49 110.33 L 217.49 85.58 L 212.34 85.58 L 212.34 94.53 C 211.12 93.07 209.42 91.82 206.68 91.82 C 202.37 91.82 198.4 95.14 198.4 101.21 C 198.4 107.35 202.44 110.67 206.68 110.67 L 206.68 110.67 Z M 208 106.3 C 205.59 106.3 203.56 104.3 203.56 101.28 C 203.56 98.16 205.59 96.19 208 96.19 C 210.41 96.19 212.41 98.19 212.41 101.21 C 212.41 104.3 210.41 106.3 208 106.3 L 208 106.3 Z M 222.21 90.16 L 227.63 90.16 L 227.63 85.58 L 222.21 85.58 L 222.21 90.16 Z M 222.34 110.33 L 227.5 110.33 L 227.5 92.16 L 222.34 92.16 L 222.34 110.33 Z M 240.96 110.74 C 244.25 110.74 246.69 109.45 248.39 107.35 L 245.44 104.74 C 244.01 106.06 242.76 106.6 241.03 106.6 C 238.72 106.6 237.09 105.38 236.59 103.04 L 249.23 103.04 C 249.27 102.57 249.3 102.09 249.3 101.69 C 249.3 96.53 246.52 91.82 240.45 91.82 C 235.16 91.82 231.46 96.09 231.46 101.28 C 231.46 106.91 235.5 110.74 240.96 110.74 L 240.96 110.74 Z M 236.52 99.82 C 236.92 97.48 238.31 95.96 240.45 95.96 C 242.62 95.96 243.98 97.52 244.28 99.82 L 236.52 99.82 Z M 259.51 110.67 C 263.44 110.67 266.46 108.84 266.46 104.81 C 266.46 101.42 263.51 100.2 260.97 99.35 C 259 98.67 257.27 98.19 257.27 97.18 C 257.27 96.4 257.91 95.86 259.17 95.86 C 260.49 95.86 262.29 96.5 264.09 97.55 L 266.05 93.99 C 264.09 92.67 261.58 91.89 259.27 91.89 C 255.61 91.89 252.62 93.96 252.62 97.65 C 252.62 101.25 255.51 102.43 258.05 103.18 C 260.05 103.79 261.81 104.16 261.81 105.28 C 261.81 106.16 261.14 106.71 259.64 106.71 C 257.95 106.71 255.88 105.96 253.91 104.54 L 251.71 107.93 C 254.12 109.83 256.96 110.67 259.51 110.67 L 259.51 110.67 Z M 259.51 110.67" />
</svg>