<?xml version="1.0" encoding="utf-8"?>
<!-- Generator: Avocode 2.5.2 - http://avocode.com -->
<svg height="125" width="195" xmlns:xlink="http://www.w3.org/1999/xlink" xmlns="http://www.w3.org/2000/svg" viewBox="0 0 195 125">
    <path fill="#ffe400" fill-rule="evenodd" d="M 41.64 74.12 L 41.64 74.12 L 41.64 74.12 C 43.91 75.24 45.94 76.43 47.88 77.75 C 49.94 79.15 50.57 79.65 54.12 82.58 C 60.47 87.83 65.41 89.71 82.49 91.19 C 96.41 92.39 112.47 89.01 124.45 81.71 C 138.1 73.39 145.69 60.84 145.69 43.66 C 145.69 28.9 139.45 26.37 104.7 25.41 C 74.8 24.59 60.55 23.21 42.18 17.64 C 39.22 16.75 36.32 15.76 33.46 14.67 C 25.46 11.63 19.4 10.29 15.32 10.37 C 13.93 10.39 12.95 10.58 12.33 10.84 C 12.04 10.97 11.91 11.06 11.81 11.19 C 11.31 11.79 10.85 13.32 10.75 15.9 C 10.62 18.93 11.04 22.8 11.96 27.58 C 12.44 30.06 13.02 32.65 13.84 36.03 C 14.1 37.11 14.98 40.7 15.08 41.12 C 15.57 43.12 15.92 44.6 16.23 46 C 17.09 49.93 17.53 52.84 17.53 55.49 C 17.53 60.5 22.12 64.5 36.82 71.75 C 37.75 72.21 41.06 73.83 41.64 74.12 L 41.64 74.12 Z M 37.11 83.37 C 22.02 75.94 7.25 69.4 7.25 55.49 C 7.25 40.38 -20.85 -17 37.11 5.03 C 95.07 27.07 155.97 -1.72 155.97 43.66 C 155.97 89.03 110.94 103.99 81.61 101.46 C 47.98 98.55 51.73 90.57 37.11 83.37 L 37.11 83.37 Z M 37.11 83.37" />
    <path fill="#020202" fill-rule="evenodd" d="M 37.56 124.88 L 72.41 124.88 L 72.41 115.83 L 37.56 115.83 L 37.56 124.88 Z M 41.11 23.44 L 36.01 32.86 L 30.92 23.44 L 23.09 23.44 L 23.09 53.98 L 30.74 53.98 L 30.74 37.43 L 34.1 44.02 L 37.93 44.02 L 41.29 37.43 L 41.29 53.98 L 49.16 53.98 L 49.16 23.44 L 41.11 23.44 Z M 64.82 23.44 L 64.82 53.98 L 85.07 53.98 L 85.07 46.9 L 72.69 46.9 L 72.69 41.78 L 82.98 41.78 L 82.98 34.69 L 72.69 34.69 L 72.69 30.53 L 85.05 30.53 L 85.05 23.44 L 64.82 23.44 Z M 30.67 69.87 L 23.24 100.41 L 31.09 100.41 L 32.44 94.51 L 39.49 94.51 L 40.84 100.41 L 49.02 100.41 L 41.59 69.87 L 30.67 69.87 Z M 35.92 79.1 L 38.1 88.48 L 33.78 88.48 L 35.92 79.1 Z M 64.76 69.93 L 64.76 77.02 L 70.98 77.02 L 70.98 100.48 L 78.85 100.48 L 78.85 77.02 L 85.08 77.02 L 85.08 69.93 L 64.76 69.93 Z M 64.76 69.93" />
    <path fill="#000000" fill-rule="evenodd" d="M 104.4 56.79 L 111.14 56.79 C 116.56 56.79 120.31 53.02 120.31 48.16 C 120.31 43.25 116.56 39.53 111.14 39.53 L 104.4 39.53 L 104.4 56.79 Z M 108.2 53.36 L 108.2 42.96 L 111.14 42.96 C 114.24 42.96 116.34 45.1 116.34 48.16 C 116.34 51.26 114.24 53.36 111.14 53.36 L 108.2 53.36 Z M 129.56 57.08 C 131.95 57.08 133.72 56.15 134.96 54.62 L 132.81 52.72 C 131.78 53.68 130.86 54.08 129.61 54.08 C 127.93 54.08 126.74 53.19 126.38 51.49 L 135.57 51.49 C 135.6 51.14 135.62 50.8 135.62 50.5 C 135.62 46.75 133.6 43.33 129.19 43.33 C 125.34 43.33 122.65 46.43 122.65 50.2 C 122.65 54.3 125.59 57.08 129.56 57.08 L 129.56 57.08 Z M 126.33 49.14 C 126.62 47.44 127.63 46.33 129.19 46.33 C 130.76 46.33 131.75 47.47 131.97 49.14 L 126.33 49.14 Z M 143.04 57.03 C 145.9 57.03 148.1 55.7 148.1 52.77 C 148.1 50.3 145.95 49.42 144.1 48.8 C 142.67 48.31 141.42 47.96 141.42 47.22 C 141.42 46.65 141.89 46.26 142.8 46.26 C 143.76 46.26 145.07 46.73 146.37 47.49 L 147.8 44.9 C 146.37 43.94 144.55 43.37 142.87 43.37 C 140.21 43.37 138.04 44.88 138.04 47.57 C 138.04 50.18 140.13 51.04 141.98 51.59 C 143.44 52.03 144.72 52.3 144.72 53.11 C 144.72 53.76 144.23 54.15 143.14 54.15 C 141.91 54.15 140.41 53.61 138.98 52.57 L 137.37 55.04 C 139.12 56.42 141.19 57.03 143.04 57.03 L 143.04 57.03 Z M 150.86 42.12 L 154.81 42.12 L 154.81 38.79 L 150.86 38.79 L 150.86 42.12 Z M 150.96 56.79 L 154.71 56.79 L 154.71 43.57 L 150.96 43.57 L 150.96 56.79 Z M 164.15 60.78 C 166.72 60.78 168.61 60.24 169.85 59.01 C 170.96 57.9 171.52 56.17 171.52 53.8 L 171.52 43.57 L 167.78 43.57 L 167.78 45.3 C 166.77 44.19 165.56 43.33 163.51 43.33 C 160.48 43.33 157.64 45.54 157.64 49.49 C 157.64 53.46 160.43 55.7 163.51 55.7 C 165.51 55.7 166.72 54.89 167.83 53.56 L 167.83 54.2 C 167.83 56.57 166.62 57.8 164.05 57.8 C 162.3 57.8 160.95 57.36 159.59 56.59 L 158.31 59.4 C 159.98 60.29 162.01 60.78 164.15 60.78 L 164.15 60.78 Z M 164.6 52.6 C 162.77 52.6 161.39 51.36 161.39 49.54 C 161.39 47.69 162.77 46.43 164.6 46.43 C 166.42 46.43 167.83 47.69 167.83 49.49 C 167.83 51.34 166.42 52.6 164.6 52.6 L 164.6 52.6 Z M 174.88 56.79 L 178.63 56.79 L 178.63 49.42 C 178.63 47.64 179.54 46.73 180.97 46.73 C 182.4 46.73 183.24 47.64 183.24 49.42 L 183.24 56.79 L 186.98 56.79 L 186.98 48.23 C 186.98 45.2 185.33 43.33 182.5 43.33 C 180.6 43.33 179.49 44.34 178.63 45.45 L 178.63 43.57 L 174.88 43.57 L 174.88 56.79 Z M 110.54 80.69 C 114.27 80.69 116.88 78.76 116.88 75.34 C 116.88 72.28 114.91 71.02 111.41 70.11 C 108.42 69.34 107.68 68.97 107.68 67.84 C 107.68 66.95 108.45 66.29 109.9 66.29 C 111.36 66.29 112.86 66.93 114.39 67.99 L 116.36 65.13 C 114.61 63.72 112.47 62.93 109.95 62.93 C 106.43 62.93 103.91 65 103.91 68.14 C 103.91 71.61 106.16 72.57 109.63 73.46 C 112.52 74.2 113.11 74.7 113.11 75.66 C 113.11 76.72 112.17 77.33 110.62 77.33 C 108.65 77.33 107.02 76.52 105.46 75.24 L 103.22 77.93 C 105.29 79.77 107.93 80.69 110.54 80.69 L 110.54 80.69 Z M 124.13 80.66 C 125.39 80.66 126.3 80.37 127.09 79.9 L 127.09 76.89 C 126.55 77.19 125.93 77.36 125.24 77.36 C 124.4 77.36 124.03 76.94 124.03 76.08 L 124.03 70.43 L 127.14 70.43 L 127.14 67.22 L 124.03 67.22 L 124.03 63.85 L 120.28 63.85 L 120.28 67.22 L 118.71 67.22 L 118.71 70.43 L 120.28 70.43 L 120.28 76.69 C 120.28 79.75 121.84 80.66 124.13 80.66 L 124.13 80.66 Z M 134.29 80.69 C 136.19 80.69 137.3 79.68 138.16 78.57 L 138.16 80.44 L 141.91 80.44 L 141.91 67.22 L 138.16 67.22 L 138.16 74.6 C 138.16 76.37 137.25 77.28 135.82 77.28 C 134.39 77.28 133.55 76.37 133.55 74.6 L 133.55 67.22 L 129.8 67.22 L 129.8 75.78 C 129.8 78.81 131.45 80.69 134.29 80.69 L 134.29 80.69 Z M 150.69 80.69 C 152.64 80.69 153.89 79.77 154.81 78.54 L 154.81 80.44 L 158.55 80.44 L 158.55 62.44 L 154.81 62.44 L 154.81 68.95 C 153.92 67.89 152.69 66.98 150.69 66.98 C 147.56 66.98 144.67 69.39 144.67 73.81 C 144.67 78.27 147.61 80.69 150.69 80.69 L 150.69 80.69 Z M 151.65 77.51 C 149.9 77.51 148.42 76.05 148.42 73.86 C 148.42 71.59 149.9 70.16 151.65 70.16 C 153.4 70.16 154.86 71.61 154.86 73.81 C 154.86 76.05 153.4 77.51 151.65 77.51 L 151.65 77.51 Z M 161.98 65.77 L 165.93 65.77 L 165.93 62.44 L 161.98 62.44 L 161.98 65.77 Z M 162.08 80.44 L 165.83 80.44 L 165.83 67.22 L 162.08 67.22 L 162.08 80.44 Z M 175.62 80.74 C 178.01 80.74 179.78 79.8 181.02 78.27 L 178.87 76.37 C 177.84 77.33 176.92 77.73 175.67 77.73 C 173.99 77.73 172.81 76.84 172.44 75.14 L 181.63 75.14 C 181.66 74.79 181.68 74.45 181.68 74.15 C 181.68 70.4 179.66 66.98 175.25 66.98 C 171.4 66.98 168.71 70.08 168.71 73.86 C 168.71 77.95 171.65 80.74 175.62 80.74 L 175.62 80.74 Z M 172.39 72.8 C 172.68 71.1 173.69 69.99 175.25 69.99 C 176.83 69.99 177.81 71.12 178.03 72.8 L 172.39 72.8 Z M 189.11 80.69 C 191.97 80.69 194.16 79.36 194.16 76.42 C 194.16 73.96 192.02 73.07 190.17 72.45 C 188.74 71.96 187.48 71.61 187.48 70.87 C 187.48 70.31 187.95 69.91 188.86 69.91 C 189.82 69.91 191.13 70.38 192.43 71.14 L 193.86 68.56 C 192.43 67.59 190.61 67.03 188.93 67.03 C 186.27 67.03 184.1 68.53 184.1 71.22 C 184.1 73.83 186.2 74.7 188.05 75.24 C 189.5 75.68 190.78 75.95 190.78 76.77 C 190.78 77.41 190.29 77.8 189.2 77.8 C 187.97 77.8 186.47 77.26 185.04 76.22 L 183.43 78.69 C 185.18 80.07 187.26 80.69 189.11 80.69 L 189.11 80.69 Z M 189.11 80.69" />
</svg>