<?xml version="1.0" encoding="utf-8"?>
<!-- Generator: Avocode 2.5.2 - http://avocode.com -->
<svg height="49" width="47" xmlns:xlink="http://www.w3.org/1999/xlink" xmlns="http://www.w3.org/2000/svg" viewBox="0 0 47 49">
    <path fill="#000000" fill-rule="evenodd" d="M 2 7 L 2 7 L 2 46 C 2 46.55 2.45 47 2.99 47 L 44.01 47 C 44.55 47 45 46.55 45 46 L 45 7 C 45 6.45 44.55 6 44.01 6 L 2.99 6 C 2.45 6 2 6.45 2 7 L 2 7 Z M 0 7 C 0 5.35 1.34 4 2.99 4 L 44.01 4 C 45.66 4 47 5.35 47 7 L 47 46 C 47 47.65 45.66 49 44.01 49 L 2.99 49 C 1.34 49 0 47.65 0 46 L 0 7 L 0 7 Z M 0 7" />
    <path fill="#000000" fill-rule="evenodd" d="M 11 1 L 11 8.5 C 11 9.05 11.45 9.5 12 9.5 C 12.55 9.5 13 9.05 13 8.5 L 13 1 C 13 0.45 12.55 0 12 0 C 11.45 0 11 0.45 11 1 L 11 1 Z M 11 1" />
    <path fill="#000000" fill-rule="evenodd" d="M 23 1 L 23 8.5 C 23 9.05 23.45 9.5 24 9.5 C 24.55 9.5 25 9.05 25 8.5 L 25 1 C 25 0.45 24.55 0 24 0 C 23.45 0 23 0.45 23 1 L 23 1 Z M 23 1" />
    <path fill="#000000" fill-rule="evenodd" d="M 34 1 L 34 8.5 C 34 9.05 34.45 9.5 35 9.5 C 35.55 9.5 36 9.05 36 8.5 L 36 1 C 36 0.45 35.55 0 35 0 C 34.45 0 34 0.45 34 1 L 34 1 Z M 34 1" />
    <path fill="#000000" fill-rule="evenodd" d="M 11 18.01 C 11 17.45 11.44 17 12 17 L 15 17 C 15.55 17 16 17.44 16 18.01 L 16 19.99 C 16 20.55 15.56 21 15 21 L 12 21 C 11.45 21 11 20.56 11 19.99 L 11 18.01 Z M 11 26.01 C 11 25.45 11.44 25 12 25 L 15 25 C 15.55 25 16 25.44 16 26.01 L 16 27.99 C 16 28.55 15.56 29 15 29 L 12 29 C 11.45 29 11 28.56 11 27.99 L 11 26.01 Z M 21 18.01 C 21 17.45 21.44 17 22 17 L 25 17 C 25.55 17 26 17.44 26 18.01 L 26 19.99 C 26 20.55 25.56 21 25 21 L 22 21 C 21.45 21 21 20.56 21 19.99 L 21 18.01 Z M 21 26.01 C 21 25.45 21.44 25 22 25 L 25 25 C 25.55 25 26 25.44 26 26.01 L 26 27.99 C 26 28.55 25.56 29 25 29 L 22 29 C 21.45 29 21 28.56 21 27.99 L 21 26.01 Z M 31 18.01 C 31 17.45 31.44 17 32 17 L 35 17 C 35.55 17 36 17.44 36 18.01 L 36 19.99 C 36 20.55 35.56 21 35 21 L 32 21 C 31.45 21 31 20.56 31 19.99 L 31 18.01 Z M 31 26.01 C 31 25.45 31.44 25 32 25 L 35 25 C 35.55 25 36 25.44 36 26.01 L 36 27.99 C 36 28.55 35.56 29 35 29 L 32 29 C 31.45 29 31 28.56 31 27.99 L 31 26.01 Z M 11 34.01 C 11 33.45 11.44 33 12 33 L 15 33 C 15.55 33 16 33.44 16 34.01 L 16 35.99 C 16 36.55 15.56 37 15 37 L 12 37 C 11.45 37 11 36.56 11 35.99 L 11 34.01 Z M 21 34.01 C 21 33.45 21.44 33 22 33 L 25 33 C 25.55 33 26 33.44 26 34.01 L 26 35.99 C 26 36.55 25.56 37 25 37 L 22 37 C 21.45 37 21 36.56 21 35.99 L 21 34.01 Z M 31 34.01 C 31 33.45 31.44 33 32 33 L 35 33 C 35.55 33 36 33.44 36 34.01 L 36 35.99 C 36 36.55 35.56 37 35 37 L 32 37 C 31.45 37 31 36.56 31 35.99 L 31 34.01 Z M 31 34.01" />
</svg>