<?xml version="1.0" encoding="utf-8"?>
<!-- Generator: Avocode 2.5.2 - http://avocode.com -->
<svg height="54" width="54" xmlns:xlink="http://www.w3.org/1999/xlink" xmlns="http://www.w3.org/2000/svg" viewBox="0 0 54 54">
    <path fill="#000000" fill-rule="evenodd" d="M 27 54 C 41.91 54 54 41.91 54 27 C 54 12.09 41.91 0 27 0 C 12.09 0 0 12.09 0 27 C 0 41.91 12.09 54 27 54 L 27 54 Z M 27 52 C 13.19 52 2 40.81 2 27 C 2 13.19 13.19 2 27 2 C 40.81 2 52 13.19 52 27 C 52 40.81 40.81 52 27 52 L 27 52 Z M 27 52" />
    <path fill="#000000" fill-rule="evenodd" d="M 27.5 48.5 C 27.84 48.5 28.18 48.49 28.52 48.48 C 28.8 48.46 29.01 48.23 29 47.95 C 28.99 47.68 28.75 47.46 28.48 47.48 C 28.15 47.49 27.83 47.5 27.5 47.5 C 27.22 47.5 27 47.72 27 48 C 27 48.28 27.22 48.5 27.5 48.5 L 27.5 48.5 Z M 35.54 46.91 C 35.85 46.78 36.17 46.64 36.48 46.49 C 36.72 46.37 36.83 46.07 36.71 45.82 C 36.59 45.58 36.3 45.47 36.05 45.59 C 35.75 45.73 35.46 45.86 35.16 45.98 C 34.9 46.09 34.78 46.38 34.89 46.64 C 34.99 46.89 35.28 47.01 35.54 46.91 L 35.54 46.91 Z M 42.35 42.35 C 42.59 42.11 42.83 41.86 43.06 41.61 C 43.24 41.4 43.23 41.09 43.02 40.9 C 42.82 40.71 42.5 40.73 42.32 40.93 C 42.1 41.18 41.87 41.41 41.64 41.64 C 41.45 41.84 41.45 42.15 41.64 42.35 C 41.84 42.54 42.15 42.54 42.35 42.35 L 42.35 42.35 Z M 46.88 35.6 C 47.01 35.29 47.14 34.97 47.25 34.65 C 47.35 34.39 47.21 34.1 46.95 34.01 C 46.69 33.91 46.41 34.05 46.31 34.31 C 46.2 34.61 46.08 34.92 45.96 35.22 C 45.85 35.47 45.97 35.76 46.23 35.87 C 46.48 35.98 46.77 35.86 46.88 35.6 L 46.88 35.6 Z M 48.5 27.5 C 48.5 27.16 48.49 26.81 48.48 26.47 C 48.46 26.2 48.23 25.99 47.95 26 C 47.68 26.01 47.46 26.25 47.48 26.52 C 47.49 26.85 47.5 27.17 47.5 27.5 C 47.5 27.78 47.72 28 48 28 C 48.28 28 48.5 27.78 48.5 27.5 L 48.5 27.5 Z M 46.91 19.46 C 46.77 19.14 46.64 18.83 46.49 18.52 C 46.37 18.27 46.07 18.17 45.82 18.29 C 45.57 18.4 45.47 18.7 45.59 18.95 C 45.73 19.24 45.86 19.54 45.98 19.84 C 46.09 20.1 46.38 20.22 46.64 20.11 C 46.89 20.01 47.01 19.71 46.91 19.46 L 46.91 19.46 Z M 42.35 12.65 C 42.11 12.41 41.86 12.17 41.61 11.94 C 41.4 11.76 41.09 11.77 40.9 11.98 C 40.71 12.18 40.73 12.5 40.93 12.68 C 41.18 12.9 41.41 13.13 41.64 13.36 C 41.84 13.55 42.15 13.55 42.35 13.36 C 42.54 13.16 42.54 12.85 42.35 12.65 L 42.35 12.65 Z M 35.6 8.12 C 35.29 7.99 34.97 7.86 34.65 7.75 C 34.39 7.65 34.1 7.79 34.01 8.05 C 33.91 8.31 34.05 8.59 34.31 8.69 C 34.61 8.8 34.92 8.92 35.22 9.04 C 35.47 9.15 35.76 9.03 35.87 8.77 C 35.98 8.52 35.86 8.23 35.6 8.12 L 35.6 8.12 Z M 27.5 6.5 C 27.15 6.5 26.81 6.51 26.47 6.52 C 26.2 6.54 25.98 6.77 26 7.05 C 26.01 7.32 26.24 7.54 26.52 7.52 C 26.84 7.51 27.17 7.5 27.5 7.5 C 27.77 7.5 28 7.28 28 7 C 28 6.72 27.77 6.5 27.5 6.5 L 27.5 6.5 Z M 19.46 8.09 C 19.14 8.23 18.83 8.36 18.52 8.51 C 18.27 8.63 18.17 8.93 18.29 9.18 C 18.4 9.43 18.7 9.53 18.95 9.41 C 19.24 9.27 19.54 9.14 19.84 9.02 C 20.1 8.91 20.22 8.62 20.11 8.36 C 20.01 8.11 19.71 7.99 19.46 8.09 L 19.46 8.09 Z M 12.65 12.65 C 12.41 12.89 12.17 13.14 11.94 13.39 C 11.76 13.6 11.77 13.92 11.98 14.1 C 12.18 14.29 12.5 14.27 12.68 14.07 C 12.9 13.83 13.13 13.59 13.36 13.36 C 13.55 13.16 13.55 12.85 13.36 12.65 C 13.16 12.46 12.84 12.46 12.65 12.65 L 12.65 12.65 Z M 8.12 19.4 C 7.99 19.72 7.86 20.03 7.75 20.35 C 7.65 20.61 7.79 20.9 8.05 21 C 8.31 21.09 8.59 20.95 8.69 20.7 C 8.8 20.39 8.92 20.09 9.04 19.79 C 9.15 19.53 9.03 19.24 8.77 19.13 C 8.52 19.03 8.23 19.15 8.12 19.4 L 8.12 19.4 Z M 6.5 27.5 C 6.5 27.85 6.51 28.19 6.52 28.53 C 6.54 28.8 6.77 29.02 7.05 29 C 7.32 28.99 7.54 28.76 7.52 28.48 C 7.51 28.16 7.5 27.83 7.5 27.5 C 7.5 27.23 7.28 27 7 27 C 6.72 27 6.5 27.23 6.5 27.5 L 6.5 27.5 Z M 8.1 35.54 C 8.23 35.86 8.36 36.17 8.51 36.48 C 8.63 36.73 8.93 36.83 9.18 36.72 C 9.43 36.6 9.53 36.3 9.41 36.05 C 9.28 35.76 9.14 35.46 9.02 35.16 C 8.91 34.9 8.62 34.78 8.37 34.89 C 8.11 34.99 7.99 35.29 8.1 35.54 L 8.1 35.54 Z M 12.65 42.35 C 12.9 42.59 13.14 42.83 13.4 43.06 C 13.6 43.24 13.92 43.23 14.1 43.02 C 14.29 42.82 14.27 42.5 14.07 42.32 C 13.83 42.1 13.59 41.88 13.36 41.65 C 13.17 41.45 12.85 41.45 12.65 41.65 C 12.46 41.84 12.46 42.16 12.65 42.35 L 12.65 42.35 Z M 19.4 46.88 C 19.72 47.01 20.03 47.14 20.35 47.25 C 20.61 47.35 20.9 47.21 21 46.95 C 21.09 46.69 20.95 46.41 20.7 46.31 C 20.39 46.2 20.09 46.08 19.79 45.96 C 19.53 45.85 19.24 45.97 19.13 46.23 C 19.03 46.48 19.15 46.77 19.4 46.88 L 19.4 46.88 Z M 19.4 46.88" />
    <path fill="#000000" fill-rule="evenodd" d="M 45 25 L 27.5 25 L 26.94 25 L 26.65 25.47 L 20.15 35.97 C 19.86 36.44 20 37.06 20.47 37.35 C 20.94 37.64 21.56 37.5 21.85 37.03 L 28.35 26.53 L 27.5 27 L 45 27 C 45.55 27 46 26.55 46 26 C 46 25.45 45.55 25 45 25 L 45 25 Z M 45 25" />
</svg>