<?xml version="1.0" encoding="utf-8"?>
<!-- Generator: Avocode 2.5.2 - http://avocode.com -->
<svg height="31" width="50" xmlns:xlink="http://www.w3.org/1999/xlink" xmlns="http://www.w3.org/2000/svg" viewBox="0 0 50 31">
    <path fill="#000000" fill-rule="evenodd" d="M 9.92 30.99 C 6.86 30.99 3.87 30.8 0.78 30.41 C 0.33 30.36 0 29.98 0 29.54 L 0 8.33 C 0 8.08 0.11 7.84 0.3 7.67 C 0.49 7.5 0.75 7.42 1 7.46 C 4.02 7.83 6.94 8.02 9.93 8.02 C 14.02 8.02 17.74 7.67 21.34 7.34 C 24.99 7 28.76 6.65 32.92 6.65 C 35.99 6.65 38.98 6.84 42.07 7.22 C 42.52 7.27 42.86 7.65 42.86 8.09 L 42.86 29.3 C 42.86 29.55 42.74 29.79 42.55 29.96 C 42.36 30.13 42.11 30.21 41.85 30.17 C 38.84 29.79 35.91 29.62 32.92 29.62 C 28.84 29.62 25.11 29.96 21.5 30.3 C 17.86 30.63 14.09 30.98 9.92 30.98 L 9.92 30.99 Z M 1.79 28.75 C 4.52 29.07 7.19 29.22 9.92 29.22 C 14.01 29.22 17.74 28.87 21.34 28.54 C 24.99 28.2 28.75 27.85 32.92 27.85 C 35.66 27.85 38.33 28 41.07 28.3 L 41.07 8.88 C 38.33 8.57 35.66 8.42 32.93 8.42 C 28.84 8.42 25.11 8.76 21.51 9.1 C 17.86 9.43 14.1 9.78 9.93 9.78 C 7.21 9.78 4.53 9.63 1.79 9.33 L 1.79 28.75 L 1.79 28.75 Z M 1.79 28.75" />
    <path fill="#000000" fill-rule="evenodd" d="M 45.54 27.05 C 45.04 27.05 44.64 26.65 44.64 26.17 L 44.64 5.75 C 36.91 4.87 30.9 5.43 25.09 5.96 C 18.98 6.53 12.66 7.11 4.35 6.08 C 3.86 6.02 3.52 5.58 3.58 5.09 C 3.64 4.61 4.08 4.26 4.57 4.32 C 12.7 5.34 18.91 4.76 24.92 4.2 C 31.02 3.64 37.33 3.06 45.65 4.09 C 46.09 4.15 46.43 4.52 46.43 4.96 L 46.43 26.17 C 46.42 26.65 46.02 27.05 45.53 27.05 L 45.54 27.05 Z M 45.54 27.05" />
    <path fill="#000000" fill-rule="evenodd" d="M 49.11 23.55 C 48.61 23.55 48.21 23.15 48.21 22.66 L 48.21 2.24 C 40.48 1.37 34.47 1.92 28.66 2.46 C 22.55 3.02 16.23 3.61 7.92 2.57 C 7.43 2.51 7.09 2.07 7.15 1.58 C 7.21 1.1 7.65 0.76 8.15 0.82 C 16.27 1.83 22.48 1.25 28.49 0.7 C 34.6 0.13 40.91 -0.45 49.22 0.58 C 49.66 0.64 50 1.01 50 1.46 L 50 22.66 C 50 23.15 49.6 23.55 49.1 23.55 L 49.11 23.55 Z M 49.11 23.55" />
    <path fill="#000000" fill-rule="evenodd" d="M 9.92 27.45 C 8.07 27.45 6.26 27.38 4.39 27.23 C 3.9 27.2 3.54 26.77 3.58 26.28 C 3.61 25.8 4.04 25.43 4.54 25.47 C 6.36 25.62 8.12 25.69 9.93 25.69 C 10.42 25.69 10.82 26.09 10.82 26.57 C 10.82 27.06 10.42 27.45 9.92 27.45 L 9.92 27.45 Z M 9.92 27.45" />
    <path fill="#000000" fill-rule="evenodd" d="M 38.39 12.17 C 38.37 12.17 38.35 12.17 38.32 12.17 C 36.51 12.02 34.75 11.95 32.93 11.95 C 32.43 11.95 32.03 11.55 32.03 11.07 C 32.03 10.58 32.43 10.18 32.93 10.18 C 34.8 10.18 36.61 10.25 38.46 10.4 C 38.96 10.44 39.32 10.87 39.28 11.35 C 39.25 11.82 38.85 12.17 38.4 12.17 L 38.39 12.17 Z M 38.39 12.17" />
    <path fill="#000000" fill-rule="evenodd" d="M 20.61 22.72 C 18.89 22.72 17.68 21.66 17.68 20.16 C 17.68 19.67 18.08 19.27 18.57 19.27 C 19.06 19.27 19.46 19.67 19.46 20.16 C 19.46 20.85 20.18 20.96 20.61 20.96 C 21.04 20.96 21.76 20.85 21.76 20.16 C 21.76 19.75 21.76 19.68 20.54 19.09 L 19.89 18.77 C 18.71 18.19 17.68 17.69 17.68 16.12 C 17.68 14.6 18.89 13.54 20.61 13.54 C 22.33 13.54 23.52 14.6 23.52 16.12 C 23.52 16.61 23.12 17 22.63 17 C 22.14 17 21.73 16.61 21.73 16.12 C 21.73 15.45 21.13 15.3 20.61 15.3 C 20.18 15.3 19.47 15.41 19.47 16.12 C 19.47 16.53 19.47 16.59 20.68 17.18 L 21.34 17.5 C 22.53 18.08 23.55 18.58 23.55 20.16 C 23.55 21.67 22.34 22.72 20.61 22.72 L 20.61 22.72 Z M 20.61 22.72" />
    <path fill="#000000" fill-rule="evenodd" d="M 20.54 13.72 C 20.3 13.72 20.07 13.63 19.91 13.45 C 19.73 13.29 19.64 13.07 19.64 12.83 C 19.64 12.6 19.73 12.37 19.91 12.22 C 20.23 11.88 20.82 11.88 21.16 12.22 C 21.34 12.37 21.43 12.6 21.43 12.83 C 21.43 13.06 21.34 13.29 21.16 13.45 C 21 13.63 20.77 13.72 20.54 13.72 L 20.54 13.72 Z M 20.54 13.72" />
    <path fill="#000000" fill-rule="evenodd" d="M 19.64 12.83 L 21.43 12.83 L 21.43 14.6 L 19.64 14.6 L 19.64 12.83 Z M 19.64 12.83" />
    <path fill="#000000" fill-rule="evenodd" d="M 20.54 24.32 C 20.3 24.32 20.07 24.23 19.91 24.05 C 19.73 23.89 19.64 23.66 19.64 23.43 C 19.64 23.2 19.73 22.97 19.91 22.81 C 20.23 22.48 20.84 22.48 21.16 22.81 C 21.34 22.97 21.43 23.2 21.43 23.43 C 21.43 23.66 21.34 23.89 21.16 24.05 C 21 24.23 20.77 24.32 20.54 24.32 L 20.54 24.32 Z M 20.54 24.32" />
    <path fill="#000000" fill-rule="evenodd" d="M 19.64 21.67 L 21.43 21.67 L 21.43 23.44 L 19.64 23.44 L 19.64 21.67 Z M 19.64 21.67" />
</svg>