<?xml version="1.0" encoding="utf-8"?>
<!-- Generator: Avocode 2.5.2 - http://avocode.com -->
<svg height="52" width="50" xmlns:xlink="http://www.w3.org/1999/xlink" xmlns="http://www.w3.org/2000/svg" viewBox="0 0 50 52">
    <path fill="#000000" fill-rule="evenodd" d="M 9.3 13.66 C 11.89 13.66 14 11.02 14 7.78 C 14 4.53 11.89 1.89 9.3 1.89 C 6.71 1.89 4.59 4.53 4.59 7.78 C 4.59 11.02 6.7 13.66 9.3 13.66 L 9.3 13.66 Z M 9.3 3.46 C 11.02 3.46 12.42 5.4 12.42 7.78 C 12.42 10.16 11.02 12.09 9.3 12.09 C 7.58 12.09 6.17 10.16 6.17 7.78 C 6.17 5.4 7.58 3.46 9.3 3.46 L 9.3 3.46 Z M 9.3 3.46" />
    <path fill="#000000" fill-rule="evenodd" d="M 49.74 25.11 C 49.71 22.4 48.4 18.1 46.54 16.26 C 44.55 14.28 39.97 13.92 36.73 15.33 C 24.67 11.94 14.23 14.55 12.49 15.03 C 9.33 13.99 5.3 14.43 3.46 16.26 C 1.61 18.1 0.29 22.4 0.27 25.11 C 0.26 26.3 0.31 32.39 2.37 34.27 C 2.64 34.52 2.94 34.68 3.27 34.78 L 3.92 48.08 C 3.95 49.38 4.62 51.84 6.9 51.84 C 7.83 51.84 8.92 51.62 9.63 50.78 C 10.1 51.01 10.66 51.17 11.24 51.17 C 11.59 51.17 11.94 51.11 12.28 50.98 C 12.97 50.72 14.13 49.94 14.13 47.59 C 14.13 46.07 14.02 40.31 13.89 34.48 C 14.76 34.41 15.46 34.09 15.98 33.51 C 17.23 32.13 17.06 29.73 16.91 27.8 C 16.86 27.11 16.82 26.46 16.86 26.07 C 16.87 26.03 17.15 23.37 16.73 20.7 C 17.42 20.51 18.11 20.37 18.51 20.35 C 18.76 25.94 19.86 47.54 19.87 47.73 C 19.88 49.7 21.51 51.01 23.01 51.1 C 23.06 51.11 23.12 51.11 23.17 51.11 C 23.81 51.11 24.53 50.87 25.05 50.29 C 25.62 50.84 26.31 51.14 27.06 51.14 C 27.22 51.14 27.39 51.13 27.55 51.1 C 28.84 50.87 29.86 49.81 30.05 48.52 C 30.05 48.49 30.05 48.47 30.05 48.44 C 30.06 48.22 30.94 26.79 31.41 20.14 C 31.84 20.2 32.57 20.39 33.22 20.62 C 33.24 20.63 33.26 20.63 33.28 20.64 C 32.85 23.33 33.14 26.03 33.14 26.07 C 33.19 26.46 33.14 27.11 33.09 27.8 C 32.95 29.73 32.77 32.13 34.02 33.51 C 34.54 34.09 35.25 34.4 36.11 34.48 C 35.99 40.31 35.87 46.07 35.87 47.59 C 35.87 49.94 37.03 50.72 37.73 50.98 C 38.06 51.11 38.42 51.17 38.76 51.17 C 39.34 51.17 39.91 51.01 40.38 50.78 C 41.08 51.62 42.17 51.84 43.1 51.84 C 45.39 51.84 46.05 49.38 46.08 48.1 L 46.74 34.78 C 47.06 34.69 47.36 34.52 47.63 34.27 C 49.7 32.39 49.75 26.3 49.74 25.11 L 49.74 25.11 Z M 14.8 32.46 C 14.57 32.71 14.26 32.86 13.86 32.91 C 13.72 26.54 13.58 20.53 13.58 20.41 C 13.57 19.98 13.23 19.64 12.77 19.64 C 12.33 19.65 11.99 20.01 12 20.45 C 12 20.68 12.54 44.28 12.54 47.59 C 12.54 48.32 12.4 49.26 11.71 49.51 C 11.26 49.69 10.66 49.55 10.26 49.35 C 10.28 49.28 10.29 49.22 10.3 49.15 L 10.31 49.09 C 10.38 48.67 10.35 40.32 10.32 35.37 C 10.32 34.94 9.97 34.59 9.53 34.59 L 9.53 34.59 C 9.1 34.59 8.74 34.95 8.75 35.38 C 8.77 40.51 8.8 48.33 8.76 48.83 L 8.74 48.91 C 8.73 48.98 8.72 49.04 8.71 49.11 C 8.58 49.26 8.52 49.44 8.52 49.63 C 8.3 49.97 7.86 50.27 6.89 50.27 C 5.57 50.27 5.49 48.07 5.49 48.03 L 4.83 34.67 C 5.05 34.55 5.24 34.39 5.41 34.18 C 6.4 32.9 6.06 30.25 5.56 27.18 C 5.46 26.55 5.37 26.01 5.33 25.64 C 5.24 24.67 6.15 21.79 6.75 20.21 C 6.91 19.81 6.7 19.35 6.3 19.2 C 5.89 19.05 5.43 19.25 5.28 19.66 C 5.11 20.11 3.6 24.14 3.76 25.79 C 3.8 26.21 3.89 26.78 4 27.43 C 4.28 29.16 4.8 32.38 4.15 33.22 C 4.1 33.29 4.05 33.32 3.97 33.32 C 3.83 33.33 3.65 33.32 3.43 33.12 C 2.34 32.13 1.81 28.35 1.84 25.12 C 1.86 22.77 3.06 18.88 4.57 17.37 C 6.1 15.85 10.55 15.45 13.37 17.15 C 15.22 18.26 15.6 23.03 15.28 25.9 C 15.22 26.43 15.27 27.12 15.32 27.91 C 15.44 29.46 15.6 31.57 14.8 32.46 L 14.8 32.46 Z M 30.32 18.74 C 30.06 18.91 29.89 19.19 29.87 19.5 C 29.42 25.38 28.52 47.22 28.47 48.33 C 28.37 48.93 27.88 49.44 27.28 49.54 C 26.69 49.65 26.17 49.33 25.79 48.66 C 25.8 48.59 25.81 48.51 25.82 48.43 C 25.83 48.4 25.83 48.36 25.83 48.33 L 25.79 33.58 C 25.78 33.15 25.43 32.8 25 32.8 L 24.99 32.8 C 24.56 32.8 24.21 33.16 24.21 33.59 L 24.25 48.29 C 24.16 48.89 23.89 49.58 23.1 49.53 C 22.33 49.48 21.45 48.73 21.45 47.68 C 21.44 47.45 20.26 24.63 20.06 19.84 C 20.05 19.52 19.88 19.22 19.61 19.03 C 19.08 18.66 18 18.7 16.39 19.16 C 16.05 17.95 15.51 16.85 14.67 16.14 C 18.2 15.42 26.12 14.32 34.97 16.49 C 34.34 17.18 33.92 18.09 33.62 19.09 C 31.13 18.23 30.52 18.61 30.32 18.74 L 30.32 18.74 Z M 44.5 48.04 C 44.5 48.06 44.42 50.26 43.11 50.26 C 42.13 50.26 41.69 49.97 41.48 49.62 C 41.48 49.43 41.41 49.25 41.29 49.11 C 41.28 49.04 41.27 48.97 41.26 48.91 L 41.25 48.86 C 41.2 48.32 41.23 40.5 41.25 35.37 C 41.26 34.94 40.9 34.58 40.47 34.58 L 40.46 34.58 C 40.03 34.58 39.68 34.93 39.67 35.36 C 39.65 40.31 39.61 48.66 39.68 49.08 L 39.69 49.14 C 39.71 49.21 39.72 49.28 39.73 49.34 C 39.34 49.54 38.74 49.68 38.28 49.51 C 37.6 49.25 37.45 48.32 37.45 47.58 C 37.45 44.27 37.99 20.68 38 20.44 C 38.01 20.01 37.66 19.65 37.23 19.64 C 36.79 19.61 36.43 19.97 36.42 20.41 C 36.42 20.52 36.28 26.53 36.14 32.91 C 35.74 32.85 35.42 32.71 35.2 32.46 C 34.4 31.57 34.55 29.46 34.66 27.91 C 34.72 27.11 34.77 26.42 34.71 25.89 C 34.39 23.02 34.77 18.25 36.62 17.14 C 39.44 15.44 43.89 15.85 45.42 17.36 C 46.94 18.87 48.14 22.77 48.16 25.12 C 48.19 28.34 47.65 32.12 46.57 33.11 C 46.34 33.31 46.16 33.32 46.03 33.31 C 45.94 33.3 45.9 33.28 45.84 33.21 C 45.19 32.37 45.72 29.15 46 27.42 C 46.11 26.77 46.2 26.2 46.24 25.78 C 46.4 24.13 44.89 20.1 44.72 19.65 C 44.57 19.24 44.11 19.04 43.7 19.19 C 43.29 19.34 43.09 19.8 43.24 20.21 C 43.84 21.78 44.76 24.66 44.67 25.63 C 44.63 26 44.54 26.54 44.44 27.17 C 43.93 30.24 43.6 32.89 44.59 34.17 C 44.75 34.38 44.95 34.54 45.17 34.66 L 44.5 48.04 Z M 44.5 48.04" />
    <path fill="#000000" fill-rule="evenodd" d="M 40.7 13.66 C 43.29 13.66 45.41 11.02 45.41 7.78 C 45.41 4.53 43.3 1.89 40.7 1.89 C 38.11 1.89 36 4.53 36 7.78 C 36 11.02 38.11 13.66 40.7 13.66 L 40.7 13.66 Z M 40.7 3.46 C 42.42 3.46 43.83 5.4 43.83 7.78 C 43.83 10.16 42.42 12.09 40.7 12.09 C 38.98 12.09 37.58 10.16 37.58 7.78 C 37.58 5.4 38.98 3.46 40.7 3.46 L 40.7 3.46 Z M 40.7 3.46" />
    <path fill="#000000" fill-rule="evenodd" d="M 24.38 11.99 C 26.97 11.99 29.08 9.35 29.08 6.1 C 29.08 2.86 26.97 0.21 24.38 0.21 C 21.78 0.21 19.67 2.86 19.67 6.1 C 19.67 9.35 21.78 11.99 24.38 11.99 L 24.38 11.99 Z M 24.38 1.79 C 26.1 1.79 27.5 3.72 27.5 6.11 C 27.5 8.49 26.1 10.42 24.38 10.42 C 22.65 10.42 21.25 8.49 21.25 6.11 C 21.25 3.72 22.65 1.79 24.38 1.79 L 24.38 1.79 Z M 24.38 1.79" />
    <path fill="#000000" fill-rule="evenodd" d="M 24.46 8.79 C 25.01 8.79 25.63 8.64 26.27 8.21 C 26.51 8.04 26.57 7.72 26.41 7.48 C 26.25 7.24 25.92 7.18 25.68 7.34 C 24.41 8.2 23.44 7.47 23.33 7.38 C 23.11 7.19 22.78 7.21 22.59 7.44 C 22.4 7.66 22.43 7.98 22.65 8.17 C 22.98 8.46 23.64 8.79 24.46 8.79 L 24.46 8.79 Z M 24.46 8.79" />
    <path fill="#000000" fill-rule="evenodd" d="M 40.66 10.69 L 40.73 10.69 C 41.4 10.66 41.99 10.29 42.49 9.58 C 42.66 9.34 42.6 9.02 42.36 8.85 C 42.13 8.68 41.8 8.74 41.63 8.98 C 41.33 9.41 41.02 9.63 40.7 9.65 C 40.23 9.66 39.75 9.24 39.61 9.07 C 39.43 8.84 39.09 8.81 38.87 9 C 38.64 9.18 38.61 9.51 38.8 9.73 C 38.88 9.83 39.62 10.69 40.66 10.69 L 40.66 10.69 Z M 40.66 10.69" />
    <path fill="#000000" fill-rule="evenodd" d="M 9.42 10.68 C 9.48 10.68 9.54 10.69 9.6 10.69 C 10.21 10.69 10.79 10.41 11.34 9.85 C 11.54 9.65 11.54 9.32 11.33 9.11 C 11.12 8.91 10.79 8.91 10.59 9.12 C 10.22 9.49 9.86 9.66 9.52 9.63 C 8.98 9.59 8.51 9.07 8.37 8.87 C 8.21 8.64 7.88 8.58 7.64 8.74 C 7.4 8.9 7.34 9.22 7.5 9.46 C 7.54 9.51 8.28 10.57 9.42 10.68 L 9.42 10.68 Z M 9.42 10.68" />
</svg>