<?xml version="1.0" encoding="utf-8"?>
<!-- Generator: Avocode 2.5.2 - http://avocode.com -->
<svg height="30" width="24" xmlns:xlink="http://www.w3.org/1999/xlink" xmlns="http://www.w3.org/2000/svg" viewBox="0 0 24 30">
    <path fill="#c4c4c4" fill-rule="evenodd" d="M 21.87 6.52 C 21.85 6.45 21.82 6.39 21.78 6.33 C 21.2 5.17 20.47 4.09 19.54 3.15 C 17.47 1.06 14.74 0 11.42 0 C 6.76 0 3.17 2.35 1.33 6.61 C -0.64 11.17 -0.25 16.95 1.37 20.37 C 1.4 20.45 1.43 20.52 1.48 20.59 C 1.81 21.25 2.19 21.82 2.61 22.26 C 4.59 24.3 4.08 28.62 4.07 28.67 C 4 29.22 4.4 29.72 4.96 29.79 C 5.52 29.86 6.03 29.47 6.1 28.91 C 6.13 28.7 6.73 23.6 4.09 20.86 C 3.8 20.57 3.53 20.16 3.28 19.66 C 2.46 16.58 3.75 14.25 4.99 12.83 C 8.11 9.26 14.31 7.23 20.23 7.81 C 21.72 11.17 21.86 15.11 21.82 16.99 C 21.82 17.07 21.82 17.12 21.82 17.16 C 21.82 17.26 21.81 17.32 21.8 17.35 C 21.76 17.36 21.69 17.38 21.56 17.38 L 20.23 17.38 C 20.04 17.36 19.84 17.35 19.63 17.35 C 16.57 17.35 16.15 18.9 16.15 20.81 L 16.15 21.32 C 16.15 21.66 16.2 21.98 16.33 22.26 L 19.12 22.26 L 19.12 23.21 C 19.12 23.83 19.12 24.54 17.14 24.54 C 16.33 24.54 15.99 24.53 15.86 24.52 C 15.71 24.49 15.56 24.49 15.41 24.52 C 14.9 24.63 14.55 25.1 14.6 25.62 C 14.6 25.62 14.6 25.63 14.6 25.63 C 14.61 26.83 14.61 28.53 14.61 28.75 C 14.59 29.17 14.84 29.58 15.26 29.73 C 15.38 29.78 15.5 29.8 15.62 29.8 C 16.04 29.8 16.42 29.55 16.58 29.15 C 16.64 28.98 16.65 28.97 16.64 26.56 C 16.8 26.56 16.96 26.56 17.14 26.56 C 19.77 26.56 21.16 25.4 21.16 23.21 L 21.16 19.4 L 21.56 19.4 C 22.96 19.4 23.86 18.52 23.86 17.16 C 23.86 17.13 23.86 17.09 23.86 17.03 C 23.9 14.9 23.73 10.38 21.87 6.52 L 21.87 6.52 Z M 3.44 11.51 C 2.88 12.16 2.41 12.83 2.04 13.53 C 2.03 11.5 2.37 9.34 3.2 7.41 C 4.27 4.95 6.56 2.02 11.42 2.02 C 14.17 2.02 16.41 2.87 18.08 4.56 C 18.44 4.92 18.76 5.3 19.05 5.71 C 12.93 5.5 6.72 7.76 3.44 11.51 L 3.44 11.51 Z M 3.44 11.51" />
</svg>