<?xml version="1.0" encoding="utf-8"?>
<!-- Generator: Avocode 2.5.2 - http://avocode.com -->
<svg height="38" width="28" xmlns:xlink="http://www.w3.org/1999/xlink" xmlns="http://www.w3.org/2000/svg" viewBox="0 0 28 38">
    <path fill="#c4c4c4" fill-rule="evenodd" d="M 27.89 11.73 C 27.89 9.7 26.55 7.94 24.68 7.3 C 24.72 7.05 24.75 6.79 24.75 6.52 C 24.75 3.93 22.6 1.83 19.97 1.83 C 19.59 1.83 19.21 1.87 18.84 1.96 C 17.96 0.75 16.52 0 14.97 0 C 12.78 0 10.93 1.42 10.37 3.43 C 9.51 3.58 8.71 3.97 8.05 4.54 C 7.86 4.52 7.67 4.51 7.48 4.51 C 4.85 4.51 2.7 6.61 2.7 9.2 C 2.7 9.44 2.72 9.68 2.76 9.91 C 1.75 10.79 1.17 12.06 1.17 13.4 C 1.17 13.77 1.21 14.12 1.3 14.47 C 0.47 15.34 0 16.48 0 17.69 C 0 19.64 1.21 21.31 2.93 22.02 C 3.02 25.52 4.04 28.72 5.55 30.28 C 7.54 32.33 7.03 36.66 7.02 36.7 C 6.95 37.26 7.35 37.76 7.92 37.83 C 8.48 37.9 8.99 37.51 9.06 36.95 C 9.09 36.73 9.7 31.63 7.04 28.88 C 5.99 27.8 5.15 25.28 5 22.38 C 6.19 22.33 7.3 21.83 8.14 21.02 C 8.64 21.18 9.16 21.27 9.69 21.27 C 10.64 21.27 11.55 21 12.33 20.49 C 13.1 21 14.01 21.27 14.96 21.27 C 17.42 21.27 19.45 19.43 19.71 17.08 C 20.25 16.81 20.73 16.45 21.12 16 C 21.74 16.29 22.42 16.43 23.12 16.43 C 23.27 16.43 23.42 16.42 23.56 16.41 C 24.82 19.63 24.94 23.23 24.91 25 C 24.91 25.08 24.9 25.13 24.9 25.17 C 24.9 25.27 24.89 25.33 24.88 25.36 C 24.85 25.37 24.77 25.39 24.64 25.39 L 23.59 25.39 C 23.56 25.39 23.52 25.38 23.48 25.38 L 20.54 25.38 C 18.93 25.38 19.16 24.23 19.16 24.02 C 19.16 23.27 17.02 24.21 17.02 26.13 C 17.02 28.04 18.59 28.3 20.54 28.3 L 22.19 28.3 L 22.19 31.24 C 22.19 31.86 22.19 32.57 20.19 32.57 C 19.37 32.57 19.03 32.56 18.9 32.55 C 18.75 32.52 18.6 32.51 18.45 32.55 C 17.93 32.65 17.58 33.13 17.63 33.65 C 17.63 33.65 17.63 33.66 17.63 33.66 C 17.64 34.86 17.64 36.56 17.63 36.78 C 17.62 37.21 17.87 37.61 18.3 37.77 C 18.42 37.82 18.54 37.84 18.66 37.84 C 19.08 37.84 19.47 37.59 19.62 37.18 C 19.68 37.02 19.69 37 19.69 34.59 C 19.84 34.59 20.01 34.59 20.19 34.59 C 22.84 34.59 24.24 33.43 24.24 31.24 L 24.24 27.41 L 24.64 27.41 C 26.05 27.41 26.96 26.53 26.96 25.17 C 26.96 25.14 26.96 25.1 26.96 25.04 C 27 23.14 26.87 19.33 25.51 15.79 C 26.93 14.98 27.89 13.46 27.89 11.73 L 27.89 11.73 Z M 27.89 11.73" />
</svg>