<?xml version="1.0" encoding="utf-8"?>
<!-- Generator: Avocode 2.5.2 - http://avocode.com -->
<svg height="30" width="24" xmlns:xlink="http://www.w3.org/1999/xlink" xmlns="http://www.w3.org/2000/svg" viewBox="0 0 24 30">
    <path fill="#000000" fill-rule="evenodd" d="M 19.54 3.15 C 17.47 1.06 14.74 0 11.42 0 C 6.76 0 3.17 2.35 1.33 6.61 C -1.08 12.18 0.04 19.59 2.61 22.26 C 4.59 24.3 4.08 28.62 4.07 28.67 C 4 29.22 4.4 29.72 4.96 29.79 C 5.52 29.86 6.03 29.47 6.1 28.91 C 6.13 28.7 6.73 23.61 4.09 20.86 C 2.23 18.93 1.03 12.43 3.2 7.41 C 4.27 4.95 6.56 2.02 11.42 2.02 C 14.17 2.02 16.41 2.87 18.08 4.56 C 21.61 8.12 21.87 14.44 21.82 16.99 C 21.82 17.07 21.82 17.12 21.82 17.16 C 21.82 17.26 21.81 17.32 21.8 17.35 C 21.76 17.36 21.69 17.38 21.56 17.38 L 20.14 17.38 C 19.58 17.38 19.12 17.83 19.12 18.39 L 19.12 23.21 C 19.12 23.84 19.12 24.54 17.14 24.54 C 16.33 24.54 15.99 24.53 15.86 24.52 C 15.71 24.49 15.56 24.49 15.41 24.52 C 14.9 24.63 14.55 25.1 14.6 25.62 C 14.6 25.62 14.6 25.63 14.6 25.63 C 14.61 26.83 14.61 28.53 14.6 28.75 C 14.59 29.18 14.85 29.59 15.28 29.74 C 15.39 29.78 15.51 29.8 15.62 29.8 C 16.04 29.8 16.43 29.54 16.58 29.13 C 16.64 28.98 16.65 28.96 16.64 26.56 C 16.8 26.56 16.96 26.56 17.14 26.56 C 19.77 26.56 21.16 25.4 21.16 23.21 L 21.16 19.4 L 21.56 19.4 C 22.96 19.4 23.86 18.52 23.86 17.16 C 23.86 17.13 23.86 17.09 23.86 17.03 C 23.92 14.22 23.61 7.25 19.54 3.15 Z M 4.09 18.2 C 4.65 18.2 5.11 17.75 5.11 17.19 C 5.11 16.63 4.65 16.18 4.09 16.18 C 3.53 16.18 3.07 16.63 3.07 17.19 C 3.07 17.75 3.53 18.2 4.09 18.2 Z M 4.09 14.19 C 4.65 14.19 5.11 13.74 5.11 13.18 C 5.11 12.63 4.65 12.18 4.09 12.18 C 3.53 12.18 3.07 12.63 3.07 13.18 C 3.07 13.74 3.53 14.19 4.09 14.19 Z M 4.09 10.19 C 4.65 10.19 5.11 9.74 5.11 9.18 C 5.11 8.62 4.65 8.17 4.09 8.17 C 3.53 8.17 3.07 8.62 3.07 9.18 C 3.07 9.74 3.53 10.19 4.09 10.19 Z M 6.9 12.17 C 6.33 12.17 5.88 12.63 5.88 13.18 C 5.88 13.74 6.33 14.19 6.9 14.19 C 7.46 14.19 7.91 13.74 7.91 13.18 C 7.91 12.63 7.46 12.17 6.9 12.17 Z M 6.9 16.18 C 6.33 16.18 5.88 16.63 5.88 17.19 C 5.88 17.75 6.33 18.2 6.9 18.2 C 7.46 18.2 7.91 17.75 7.91 17.19 C 7.91 16.63 7.46 16.18 6.9 16.18 Z M 6.9 8.17 C 6.33 8.17 5.88 8.62 5.88 9.18 C 5.88 9.74 6.33 10.19 6.9 10.19 C 7.46 10.19 7.91 9.74 7.91 9.18 C 7.91 8.62 7.46 8.17 6.9 8.17 Z M 6.9 4.17 C 6.33 4.17 5.88 4.62 5.88 5.18 C 5.88 5.73 6.33 6.19 6.9 6.19 C 7.46 6.19 7.91 5.73 7.91 5.18 C 7.91 4.62 7.46 4.17 6.9 4.17 Z M 6.89 20.18 C 6.63 20.18 6.36 20.29 6.17 20.48 C 5.98 20.67 5.88 20.93 5.88 21.19 C 5.88 21.46 5.98 21.72 6.17 21.9 C 6.36 22.09 6.63 22.2 6.89 22.2 C 7.16 22.2 7.43 22.09 7.62 21.9 C 7.81 21.72 7.91 21.46 7.91 21.19 C 7.91 20.93 7.81 20.67 7.62 20.48 C 7.43 20.29 7.16 20.18 6.89 20.18 Z M 9.7 12.17 C 9.14 12.17 8.68 12.63 8.68 13.18 C 8.68 13.74 9.14 14.19 9.7 14.19 C 10.26 14.19 10.72 13.74 10.72 13.18 C 10.72 12.63 10.26 12.17 9.7 12.17 Z M 9.7 10.19 C 10.26 10.19 10.72 9.74 10.72 9.18 C 10.72 8.62 10.26 8.17 9.7 8.17 C 9.14 8.17 8.68 8.62 8.68 9.18 C 8.68 9.74 9.14 10.19 9.7 10.19 Z M 9.7 18.2 C 10.26 18.2 10.72 17.75 10.72 17.19 C 10.72 16.63 10.26 16.18 9.7 16.18 C 9.14 16.18 8.68 16.63 8.68 17.19 C 8.68 17.75 9.14 18.2 9.7 18.2 Z M 9.7 4.17 C 9.14 4.17 8.68 4.62 8.68 5.18 C 8.68 5.73 9.14 6.19 9.7 6.19 C 10.26 6.19 10.72 5.73 10.72 5.18 C 10.72 4.62 10.26 4.17 9.7 4.17 Z M 12.5 8.17 C 11.94 8.17 11.48 8.62 11.48 9.18 C 11.48 9.74 11.94 10.19 12.5 10.19 C 13.07 10.19 13.52 9.74 13.52 9.18 C 13.52 8.62 13.07 8.17 12.5 8.17 Z M 12.5 12.18 C 11.94 12.18 11.48 12.63 11.48 13.18 C 11.48 13.74 11.94 14.19 12.5 14.19 C 13.07 14.19 13.52 13.74 13.52 13.18 C 13.52 12.63 13.07 12.18 12.5 12.18 Z M 12.5 12.18" />
</svg>