<?xml version="1.0" encoding="utf-8"?>
<!-- Generator: Avocode 2.5.2 - http://avocode.com -->
<svg height="37" width="23" xmlns:xlink="http://www.w3.org/1999/xlink" xmlns="http://www.w3.org/2000/svg" viewBox="0 0 23 37">
    <path fill="#000000" fill-rule="evenodd" d="M 2 21.95 C 1.96 21.4 1.49 20.99 0.96 21.03 C 0.42 21.07 0.01 21.55 0.05 22.1 C 0.27 25.19 1.19 27.88 2.51 29.29 C 4.4 31.31 3.91 35.57 3.91 35.61 C 3.84 36.16 4.22 36.66 4.76 36.72 C 4.8 36.73 4.84 36.73 4.88 36.73 C 5.36 36.73 5.79 36.36 5.85 35.86 C 5.87 35.65 6.45 30.62 3.92 27.92 C 2.92 26.85 2.19 24.56 2 21.95 Z M 20.2 12.35 L 20.2 1.41 C 20.2 1.08 20.05 0.78 19.79 0.59 C 19.53 0.41 19.2 0.36 18.9 0.47 L 0.65 6.98 C 0.26 7.12 0 7.5 0 7.92 L 0 12.75 C 0 13 0.1 13.24 0.26 13.43 C 0.2 13.67 0.16 13.95 0.16 14.3 C 0.16 15.18 0.44 15.67 0.65 16.03 C 0.8 16.29 0.87 16.41 0.87 16.76 C 0.87 17.1 0.8 17.22 0.65 17.48 C 0.44 17.84 0.16 18.33 0.16 19.22 C 0.16 19.77 0.59 20.21 1.13 20.21 C 1.67 20.21 2.11 19.77 2.11 19.22 C 2.11 18.87 2.18 18.75 2.33 18.49 C 2.54 18.13 2.82 17.64 2.82 16.76 C 2.82 15.87 2.54 15.38 2.33 15.02 C 2.18 14.76 2.11 14.64 2.11 14.3 C 2.11 14.03 2.15 13.9 2.24 13.74 L 3.52 13.73 C 3.49 13.9 3.47 14.09 3.47 14.3 C 3.47 15.18 3.76 15.67 3.96 16.03 C 4.11 16.29 4.18 16.41 4.18 16.76 C 4.18 17.1 4.11 17.22 3.96 17.48 C 3.76 17.84 3.47 18.33 3.47 19.22 C 3.47 19.77 3.91 20.21 4.45 20.21 C 4.99 20.21 5.43 19.77 5.43 19.22 C 5.43 18.87 5.5 18.75 5.65 18.49 C 5.85 18.13 6.14 17.64 6.14 16.76 C 6.14 15.87 5.85 15.38 5.65 15.02 C 5.5 14.76 5.43 14.64 5.43 14.3 C 5.43 14.02 5.47 13.89 5.56 13.72 L 6.84 13.71 C 6.81 13.89 6.79 14.08 6.79 14.3 C 6.79 15.18 7.07 15.67 7.28 16.03 C 7.43 16.29 7.5 16.41 7.5 16.76 C 7.5 17.1 7.43 17.22 7.28 17.48 C 7.07 17.84 6.79 18.33 6.79 19.22 C 6.79 19.77 7.23 20.21 7.77 20.21 C 8.31 20.21 8.74 19.77 8.74 19.22 C 8.74 18.87 8.81 18.75 8.96 18.49 C 9.17 18.13 9.45 17.64 9.45 16.76 C 9.45 15.87 9.17 15.38 8.96 15.02 C 8.81 14.76 8.74 14.64 8.74 14.3 C 8.74 14.01 8.79 13.88 8.89 13.7 L 10.16 13.69 C 10.12 13.87 10.11 14.07 10.11 14.3 C 10.11 15.18 10.39 15.67 10.6 16.03 C 10.75 16.29 10.82 16.41 10.82 16.76 C 10.82 17.1 10.75 17.22 10.6 17.48 C 10.39 17.84 10.11 18.33 10.11 19.22 C 10.11 19.77 10.54 20.21 11.08 20.21 C 11.62 20.21 12.06 19.77 12.06 19.22 C 12.06 18.87 12.13 18.75 12.28 18.49 C 12.49 18.13 12.77 17.64 12.77 16.76 C 12.77 15.87 12.49 15.38 12.28 15.02 C 12.13 14.76 12.06 14.64 12.06 14.3 C 12.06 14 12.11 13.87 12.22 13.68 L 13.48 13.67 C 13.44 13.86 13.42 14.06 13.42 14.3 C 13.42 15.18 13.71 15.67 13.91 16.03 C 14.06 16.29 14.13 16.41 14.13 16.76 C 14.13 17.31 14.57 17.75 15.11 17.75 C 15.65 17.75 16.09 17.31 16.09 16.76 C 16.09 15.87 15.8 15.38 15.6 15.02 C 15.45 14.76 15.38 14.64 15.38 14.3 C 15.38 13.99 15.43 13.87 15.55 13.66 L 16.8 13.65 C 16.76 13.84 16.74 14.05 16.74 14.3 C 16.74 14.85 17.18 15.29 17.72 15.29 C 18.26 15.29 18.69 14.85 18.69 14.3 C 18.69 14.07 18.72 13.94 18.79 13.81 C 20.79 17.34 20.96 22 20.92 24.09 C 20.91 24.17 20.91 24.22 20.91 24.26 C 20.91 24.36 20.9 24.42 20.89 24.45 C 20.86 24.46 20.79 24.48 20.66 24.48 L 19.31 24.48 C 18.77 24.48 18.33 24.92 18.33 25.47 L 18.33 30.23 C 18.33 30.85 18.33 31.54 16.43 31.54 C 15.65 31.54 15.33 31.53 15.2 31.53 C 15.06 31.49 14.91 31.49 14.77 31.52 C 14.28 31.63 13.94 32.1 14 32.6 C 14 32.61 14 32.62 14 32.62 C 14 33.8 14 35.48 14 35.7 C 13.98 36.12 14.23 36.52 14.64 36.67 C 14.75 36.71 14.87 36.73 14.97 36.73 C 15.38 36.73 15.75 36.48 15.89 36.07 C 15.95 35.92 15.95 35.9 15.95 33.53 C 16.1 33.53 16.26 33.53 16.43 33.53 C 18.95 33.53 20.28 32.39 20.28 30.23 L 20.28 26.47 L 20.66 26.47 C 22 26.47 22.87 25.6 22.87 24.26 C 22.87 24.23 22.87 24.19 22.87 24.13 C 22.92 21.76 22.7 16.39 20.2 12.35 Z M 20.2 12.35" />
</svg>