<?xml version="1.0" encoding="utf-8"?>
<!-- Generator: Avocode 2.5.2 - http://avocode.com -->
<svg height="30" width="30" xmlns:xlink="http://www.w3.org/1999/xlink" xmlns="http://www.w3.org/2000/svg" viewBox="0 0 30 30">
    <path fill="#000000" fill-rule="evenodd" d="M 29.84 4.43 C 29.66 3.86 29.05 3.54 28.48 3.72 L 21.41 5.91 C 20.88 4.92 20.22 3.97 19.41 3.15 C 17.36 1.06 14.66 0 11.38 0 C 6.76 0 3.22 2.35 1.39 6.61 C 0.54 8.59 0.14 10.81 0.08 12.96 C -0.01 13.18 -0.03 13.44 0.05 13.7 C 0.06 13.72 0.07 13.75 0.08 13.77 C 0.13 17.36 1.14 20.66 2.66 22.26 C 4.61 24.3 4.11 28.62 4.11 28.67 C 4.04 29.22 4.43 29.72 4.98 29.79 C 5.54 29.86 6.04 29.47 6.11 28.92 C 6.14 28.7 6.74 23.61 4.12 20.87 C 3.07 19.76 2.23 17.15 2.11 14.19 L 20.38 8.5 C 21.59 11.7 21.7 15.24 21.67 16.99 C 21.67 17.07 21.67 17.12 21.67 17.16 C 21.67 17.26 21.66 17.32 21.65 17.35 C 21.61 17.36 21.54 17.38 21.41 17.38 L 20.01 17.38 C 19.45 17.38 19 17.83 19 18.39 L 19 23.21 C 19 23.84 19 24.54 17.04 24.54 C 16.24 24.54 15.9 24.53 15.77 24.52 C 15.62 24.49 15.47 24.49 15.32 24.52 C 14.82 24.63 14.47 25.1 14.53 25.62 C 14.53 25.62 14.53 25.63 14.53 25.63 C 14.53 26.83 14.53 28.53 14.53 28.75 C 14.51 29.18 14.77 29.59 15.2 29.74 C 15.31 29.78 15.42 29.8 15.54 29.8 C 15.95 29.8 16.34 29.54 16.49 29.13 C 16.54 28.98 16.55 28.96 16.55 26.56 C 16.7 26.56 16.86 26.56 17.04 26.56 C 19.64 26.56 21.02 25.4 21.02 23.21 L 21.02 19.4 L 21.41 19.4 C 22.79 19.4 23.69 18.52 23.69 17.16 C 23.69 17.13 23.69 17.09 23.69 17.03 C 23.73 15.15 23.6 11.41 22.3 7.9 L 29.12 5.78 C 29.69 5.6 30.01 5 29.84 4.43 L 29.84 4.43 Z M 2.16 11.91 C 2.29 10.38 2.64 8.83 3.25 7.41 C 4.3 4.95 6.56 2.02 11.38 2.02 C 14.1 2.02 16.32 2.87 17.97 4.56 C 18.55 5.15 19.04 5.82 19.45 6.53 L 2.16 11.91 L 2.16 11.91 Z M 2.16 11.91" />
</svg>