<?xml version="1.0" encoding="utf-8"?>
<!-- Generator: Avocode 2.5.2 - http://avocode.com -->
<svg height="30" width="30" xmlns:xlink="http://www.w3.org/1999/xlink" xmlns="http://www.w3.org/2000/svg" viewBox="0 0 30 30">
    <path fill="#000000" fill-rule="evenodd" d="M 25.46 3.15 C 23.39 1.06 20.64 0 17.32 0 C 12.64 0 9.04 2.35 7.19 6.61 C 5.42 10.69 5.55 15.77 6.76 19.23 C 5.77 19.35 4.94 19.99 4.55 20.86 L 1.1 20.86 C 0.49 20.86 0 21.35 0 21.94 C 0 22.54 0.49 23.03 1.1 23.03 L 4.55 23.03 C 4.58 23.09 4.61 23.15 4.64 23.22 L 1.75 26.07 C 1.32 26.5 1.32 27.18 1.75 27.6 C 1.96 27.81 2.24 27.92 2.52 27.92 C 2.8 27.92 3.09 27.81 3.3 27.6 L 6.37 24.58 C 6.6 24.64 6.84 24.68 7.1 24.68 C 8.01 24.68 8.82 24.24 9.33 23.56 C 10.29 25.73 9.95 28.63 9.94 28.67 C 9.87 29.22 10.27 29.72 10.83 29.79 C 11.39 29.86 11.9 29.47 11.97 28.91 C 12 28.7 12.59 23.72 10.04 20.96 L 25.19 6.02 C 27.6 9.65 27.8 14.76 27.75 16.99 C 27.75 17.07 27.75 17.12 27.75 17.16 C 27.75 17.26 27.74 17.32 27.73 17.35 C 27.7 17.36 27.62 17.38 27.49 17.38 L 26.07 17.38 C 25.5 17.38 25.04 17.83 25.04 18.39 L 25.04 23.21 C 25.04 23.84 25.04 24.54 23.06 24.54 C 22.24 24.54 21.9 24.53 21.77 24.52 C 21.62 24.49 21.47 24.49 21.32 24.52 C 20.81 24.63 20.45 25.1 20.51 25.62 C 20.51 25.62 20.51 25.63 20.51 25.63 C 20.51 26.83 20.51 28.53 20.51 28.75 C 20.49 29.18 20.76 29.59 21.19 29.74 C 21.3 29.78 21.42 29.8 21.53 29.8 C 21.95 29.8 22.35 29.54 22.5 29.13 C 22.55 28.98 22.56 28.96 22.56 26.56 C 22.71 26.56 22.88 26.56 23.06 26.56 C 25.7 26.56 27.09 25.4 27.09 23.21 L 27.09 19.4 L 27.49 19.4 C 28.89 19.4 29.8 18.52 29.8 17.16 C 29.8 17.13 29.8 17.09 29.8 17.03 C 29.86 14.22 29.54 7.25 25.46 3.15 L 25.46 3.15 Z M 7.1 22.51 C 6.78 22.51 6.52 22.26 6.52 21.94 C 6.52 21.63 6.78 21.38 7.1 21.38 C 7.41 21.38 7.67 21.63 7.67 21.94 C 7.67 22.26 7.41 22.51 7.1 22.51 L 7.1 22.51 Z M 8.87 19.05 C 7.73 16.21 7.36 11.35 9.07 7.41 C 10.14 4.95 12.43 2.02 17.32 2.02 C 19.95 2.02 22.13 2.8 23.78 4.35 L 8.87 19.05 L 8.87 19.05 Z M 8.87 19.05" />
</svg>