<?xml version="1.0" encoding="utf-8"?>
<!-- Generator: Avocode 2.5.2 - http://avocode.com -->
<svg height="43" width="24" xmlns:xlink="http://www.w3.org/1999/xlink" xmlns="http://www.w3.org/2000/svg" viewBox="0 0 24 43">
    <path fill="#c4c4c4" fill-rule="evenodd" d="M 21.18 17.48 L 21.18 1.03 C 21.18 0.68 21 0.35 20.7 0.16 C 20.4 -0.03 20.03 -0.05 19.72 0.1 L 0.67 9.29 C 0.32 9.46 0.09 9.82 0.09 10.22 L 0.09 23.94 C -0.34 28.42 0.76 32.9 2.61 34.87 C 4.59 36.96 4.08 41.37 4.07 41.42 C 4 41.98 4.4 42.5 4.96 42.57 C 5.52 42.64 6.03 42.24 6.1 41.67 C 6.1 41.65 6.1 41.61 6.11 41.54 C 6.2 40.7 6.54 36.04 4.09 33.45 C 2.22 31.47 1.03 24.83 3.2 19.7 C 4.27 17.18 6.56 14.19 11.42 14.19 C 14.17 14.19 16.41 15.06 18.08 16.79 C 21.61 20.42 21.87 26.88 21.82 29.49 C 21.82 29.56 21.82 29.62 21.82 29.66 C 21.82 29.76 21.81 29.82 21.8 29.85 C 21.76 29.86 21.69 29.88 21.56 29.88 L 20.14 29.88 C 19.58 29.88 19.12 30.34 19.12 30.91 L 19.12 35.84 C 19.12 36.48 19.12 37.2 17.14 37.2 C 16.33 37.2 15.99 37.19 15.86 37.18 C 15.71 37.15 15.56 37.15 15.41 37.18 C 14.9 37.29 14.55 37.78 14.6 38.3 C 14.6 38.31 14.6 38.31 14.6 38.32 C 14.61 39.54 14.61 41.28 14.6 41.5 C 14.6 41.52 14.61 41.53 14.61 41.54 C 14.61 41.97 14.86 42.36 15.28 42.51 C 15.39 42.56 15.51 42.57 15.62 42.57 C 16.04 42.57 16.43 42.31 16.58 41.89 C 16.64 41.73 16.65 41.71 16.64 39.26 C 16.8 39.26 16.96 39.26 17.14 39.26 C 19.77 39.26 21.16 38.08 21.16 35.84 L 21.16 31.94 L 21.56 31.94 C 22.96 31.94 23.86 31.05 23.86 29.66 C 23.86 29.63 23.86 29.59 23.86 29.53 C 23.91 27.1 23.69 21.65 21.18 17.48 L 21.18 17.48 Z M 21.18 17.48" />
</svg>