<?xml version="1.0" encoding="utf-8"?>
<!-- Generator: Avocode 2.5.2 - http://avocode.com -->
<svg height="30" width="22" xmlns:xlink="http://www.w3.org/1999/xlink" xmlns="http://www.w3.org/2000/svg" viewBox="0 0 22 30">
    <path fill="#000000" fill-rule="evenodd" d="M 17.33 3.15 C 15.29 1.06 12.6 0 9.33 0 C 6.48 0 4.2 0.86 2.57 2.55 C -0.11 5.33 0 9.33 0 9.5 C 0.02 10.05 0.48 10.49 1.04 10.47 C 1.59 10.45 2.03 9.99 2.01 9.43 C 2.01 9.4 1.94 6.1 4.03 3.94 C 5.27 2.67 7.05 2.02 9.33 2.02 C 11.52 2.02 13.38 2.58 14.89 3.69 C 14.82 10.17 13.33 16.23 10.67 20.79 C 8.29 24.88 5.25 27.3 2.01 27.72 L 2.01 13.42 C 2.01 12.87 1.56 12.42 1.01 12.42 C 0.45 12.42 0 12.87 0 13.42 L 0 28.79 C 0 29.35 0.45 29.8 1.01 29.8 C 5.36 29.8 9.41 26.96 12.41 21.81 C 14.96 17.42 16.5 11.77 16.84 5.7 C 19.42 9.34 19.63 14.69 19.58 16.99 C 19.58 17.07 19.58 17.12 19.58 17.16 C 19.58 17.26 19.57 17.32 19.56 17.35 C 19.52 17.36 19.45 17.38 19.32 17.38 L 17.93 17.38 C 17.37 17.38 16.92 17.83 16.92 18.39 L 16.92 23.21 C 16.92 23.84 16.92 24.54 14.97 24.54 C 14.21 24.54 13.83 24.54 13.64 24.54 C 12.52 24.56 12.46 25.39 12.46 25.56 C 12.47 26.74 12.47 28.52 12.47 28.75 C 12.45 29.18 12.71 29.59 13.13 29.74 C 13.24 29.78 13.36 29.8 13.47 29.8 C 13.88 29.8 14.27 29.54 14.42 29.13 C 14.47 28.98 14.48 28.96 14.48 26.56 C 14.62 26.56 14.78 26.56 14.97 26.56 C 17.56 26.56 18.93 25.4 18.93 23.21 L 18.93 19.4 L 19.32 19.4 C 20.7 19.4 21.59 18.52 21.59 17.16 C 21.59 17.13 21.59 17.09 21.59 17.03 C 21.65 14.22 21.34 7.25 17.33 3.15 L 17.33 3.15 Z M 17.33 3.15" />
</svg>