<?xml version="1.0" encoding="utf-8"?>
<!-- Generator: Avocode 2.5.2 - http://avocode.com -->
<svg height="30" width="22" xmlns:xlink="http://www.w3.org/1999/xlink" xmlns="http://www.w3.org/2000/svg" viewBox="0 0 22 30">
    <path fill="#000000" fill-rule="evenodd" d="M 17.7 3.15 C 16.51 1.93 15.1 1.07 13.48 0.56 C 13.32 0.43 13.11 0.35 12.88 0.35 C 12.85 0.35 12.82 0.36 12.79 0.36 C 11.82 0.12 10.79 0 9.69 0 C 6.84 0 4.57 0.86 2.94 2.55 C 0.26 5.33 0.36 9.33 0.37 9.5 C 0.39 10.05 0.85 10.49 1.4 10.47 C 1.96 10.45 2.39 9.99 2.38 9.43 C 2.38 9.4 2.34 7.47 3.25 5.59 C 3.26 5.6 3.26 5.61 3.27 5.62 C 3.42 5.88 3.5 6 3.5 6.35 C 3.5 6.7 3.42 6.82 3.27 7.08 C 3.06 7.45 2.76 7.94 2.76 8.84 C 2.76 9.74 3.06 10.24 3.27 10.6 C 3.42 10.87 3.5 10.99 3.5 11.34 C 3.5 11.68 3.42 11.81 3.27 12.07 C 3.06 12.43 2.76 12.93 2.76 13.83 C 2.76 14.73 3.06 15.23 3.27 15.59 C 3.42 15.85 3.5 15.97 3.5 16.32 C 3.5 16.67 3.42 16.79 3.27 17.06 C 3.06 17.42 2.76 17.92 2.76 18.81 C 2.76 19.71 3.06 20.21 3.27 20.57 C 3.42 20.84 3.5 20.96 3.5 21.31 C 3.5 21.66 3.42 21.78 3.27 22.04 C 3.06 22.41 2.76 22.9 2.76 23.8 C 2.76 24.7 3.06 25.2 3.27 25.56 C 3.42 25.83 3.5 25.95 3.5 26.3 C 3.5 26.64 3.42 26.77 3.27 27.03 C 3.06 27.39 2.76 27.89 2.76 28.79 C 2.76 29.35 3.21 29.8 3.77 29.8 C 4.32 29.8 4.77 29.35 4.77 28.79 C 4.77 28.44 4.85 28.32 5 28.05 C 5.21 27.69 5.51 27.19 5.51 26.3 C 5.51 25.4 5.21 24.9 5 24.54 C 4.85 24.27 4.77 24.15 4.77 23.8 C 4.77 23.45 4.85 23.33 5 23.07 C 5.21 22.7 5.51 22.21 5.51 21.31 C 5.51 20.41 5.21 19.91 5 19.55 C 4.85 19.28 4.77 19.16 4.77 18.81 C 4.77 18.47 4.85 18.35 5 18.08 C 5.21 17.72 5.51 17.22 5.51 16.32 C 5.51 15.42 5.21 14.93 5 14.56 C 4.85 14.3 4.77 14.18 4.77 13.83 C 4.77 13.48 4.85 13.36 5 13.09 C 5.21 12.73 5.51 12.23 5.51 11.34 C 5.51 10.44 5.21 9.94 5 9.58 C 4.85 9.31 4.77 9.19 4.77 8.84 C 4.77 8.49 4.85 8.37 5 8.11 C 5.21 7.74 5.51 7.25 5.51 6.35 C 5.51 5.45 5.21 4.95 5 4.59 C 4.85 4.32 4.77 4.2 4.77 3.86 C 4.77 3.77 4.76 3.69 4.74 3.61 C 5.02 3.37 5.32 3.16 5.64 2.97 C 5.57 3.22 5.53 3.5 5.53 3.85 C 5.53 4.75 5.82 5.25 6.03 5.61 C 6.19 5.88 6.26 6 6.26 6.35 C 6.26 6.7 6.19 6.82 6.03 7.08 C 5.82 7.45 5.53 7.94 5.53 8.84 C 5.53 9.74 5.82 10.24 6.03 10.6 C 6.19 10.86 6.26 10.99 6.26 11.33 C 6.26 11.68 6.19 11.8 6.03 12.07 C 5.82 12.43 5.53 12.93 5.53 13.83 C 5.53 14.73 5.82 15.22 6.03 15.59 C 6.19 15.85 6.26 15.97 6.26 16.32 C 6.26 16.67 6.19 16.79 6.03 17.06 C 5.82 17.42 5.53 17.92 5.53 18.81 C 5.53 19.71 5.82 20.21 6.03 20.57 C 6.19 20.84 6.26 20.96 6.26 21.31 C 6.26 21.66 6.19 21.78 6.03 22.04 C 5.82 22.41 5.53 22.9 5.53 23.8 C 5.53 24.7 5.82 25.2 6.03 25.56 C 6.19 25.82 6.26 25.95 6.26 26.3 C 6.26 26.64 6.19 26.77 6.03 27.03 C 5.82 27.39 5.53 27.89 5.53 28.79 C 5.53 29.35 5.98 29.8 6.53 29.8 C 7.09 29.8 7.54 29.35 7.54 28.79 C 7.54 28.44 7.61 28.32 7.77 28.05 C 7.98 27.69 8.27 27.19 8.27 26.3 C 8.27 25.4 7.98 24.9 7.77 24.54 C 7.61 24.27 7.54 24.15 7.54 23.8 C 7.54 23.45 7.61 23.33 7.77 23.07 C 7.98 22.7 8.27 22.21 8.27 21.31 C 8.27 20.41 7.98 19.91 7.77 19.55 C 7.61 19.28 7.54 19.16 7.54 18.81 C 7.54 18.47 7.61 18.35 7.77 18.08 C 7.98 17.72 8.27 17.22 8.27 16.32 C 8.27 15.42 7.98 14.93 7.77 14.56 C 7.61 14.3 7.54 14.18 7.54 13.83 C 7.54 13.48 7.61 13.36 7.77 13.09 C 7.98 12.73 8.27 12.23 8.27 11.33 C 8.27 10.44 7.98 9.94 7.77 9.58 C 7.61 9.31 7.54 9.19 7.54 8.84 C 7.54 8.49 7.61 8.37 7.77 8.11 C 7.98 7.74 8.27 7.25 8.27 6.35 C 8.27 5.45 7.98 4.95 7.77 4.59 C 7.61 4.32 7.54 4.2 7.54 3.85 C 7.54 3.51 7.61 3.39 7.77 3.12 C 7.91 2.88 8.09 2.57 8.19 2.12 C 8.39 2.09 8.61 2.07 8.82 2.05 C 8.82 2.07 8.81 2.08 8.8 2.1 C 8.58 2.46 8.29 2.96 8.29 3.85 C 8.29 4.75 8.58 5.25 8.8 5.61 C 8.95 5.88 9.02 6 9.02 6.35 C 9.02 6.7 8.95 6.82 8.8 7.08 C 8.58 7.44 8.29 7.94 8.29 8.84 C 8.29 9.74 8.58 10.24 8.8 10.6 C 8.95 10.86 9.02 10.98 9.02 11.33 C 9.02 11.68 8.95 11.8 8.8 12.07 C 8.58 12.43 8.29 12.93 8.29 13.83 C 8.29 14.73 8.58 15.22 8.8 15.59 C 8.95 15.85 9.02 15.97 9.02 16.32 C 9.02 16.67 8.95 16.79 8.8 17.06 C 8.58 17.42 8.29 17.91 8.29 18.81 C 8.29 19.71 8.58 20.21 8.8 20.57 C 8.95 20.84 9.02 20.96 9.02 21.31 C 9.02 21.65 8.95 21.78 8.8 22.04 C 8.58 22.4 8.29 22.9 8.29 23.8 C 8.29 24.7 8.58 25.2 8.8 25.56 C 8.95 25.82 9.02 25.95 9.02 26.29 C 9.02 26.64 8.95 26.76 8.8 27.03 C 8.58 27.39 8.29 27.89 8.29 28.79 C 8.29 29.35 8.74 29.8 9.3 29.8 C 9.85 29.8 10.3 29.35 10.3 28.79 C 10.3 28.44 10.37 28.32 10.53 28.05 C 10.74 27.69 11.04 27.19 11.04 26.29 C 11.04 25.4 10.74 24.9 10.53 24.54 C 10.37 24.27 10.3 24.15 10.3 23.8 C 10.3 23.45 10.37 23.33 10.53 23.07 C 10.74 22.7 11.04 22.21 11.04 21.31 C 11.04 20.41 10.74 19.91 10.53 19.55 C 10.37 19.28 10.3 19.16 10.3 18.81 C 10.3 18.47 10.37 18.34 10.53 18.08 C 10.74 17.72 11.04 17.22 11.04 16.32 C 11.04 15.42 10.74 14.92 10.53 14.56 C 10.37 14.3 10.3 14.18 10.3 13.83 C 10.3 13.48 10.37 13.36 10.53 13.09 C 10.74 12.73 11.04 12.23 11.04 11.33 C 11.04 10.44 10.74 9.94 10.53 9.57 C 10.37 9.31 10.3 9.19 10.3 8.84 C 10.3 8.49 10.37 8.37 10.53 8.11 C 10.74 7.74 11.04 7.24 11.04 6.35 C 11.04 5.45 10.74 4.95 10.53 4.59 C 10.37 4.32 10.3 4.2 10.3 3.85 C 10.3 3.51 10.37 3.39 10.53 3.12 C 10.68 2.87 10.86 2.55 10.96 2.08 C 11.18 2.11 11.4 2.14 11.61 2.17 C 11.4 2.53 11.15 3.02 11.15 3.85 C 11.15 4.75 11.44 5.25 11.65 5.61 C 11.81 5.88 11.88 6 11.88 6.35 C 11.88 6.7 11.81 6.82 11.65 7.08 C 11.44 7.44 11.15 7.94 11.15 8.84 C 11.15 9.74 11.44 10.24 11.65 10.6 C 11.81 10.86 11.88 10.98 11.88 11.33 C 11.88 11.68 11.81 11.8 11.65 12.07 C 11.44 12.43 11.15 12.93 11.15 13.83 C 11.15 14.72 11.44 15.22 11.65 15.59 C 11.81 15.85 11.88 15.97 11.88 16.32 C 11.88 16.67 11.81 16.79 11.65 17.05 C 11.44 17.42 11.15 17.91 11.15 18.81 C 11.15 19.37 11.6 19.82 12.15 19.82 C 12.71 19.82 13.16 19.37 13.16 18.81 C 13.16 18.46 13.23 18.34 13.38 18.08 C 13.6 17.72 13.89 17.22 13.89 16.32 C 13.89 15.42 13.6 14.92 13.38 14.56 C 13.23 14.3 13.16 14.17 13.16 13.83 C 13.16 13.48 13.23 13.36 13.38 13.09 C 13.6 12.73 13.89 12.23 13.89 11.33 C 13.89 10.43 13.6 9.94 13.38 9.57 C 13.23 9.31 13.16 9.19 13.16 8.84 C 13.16 8.49 13.23 8.37 13.38 8.1 C 13.6 7.74 13.89 7.24 13.89 6.35 C 13.89 5.45 13.6 4.95 13.38 4.59 C 13.23 4.32 13.16 4.2 13.16 3.85 C 13.16 3.51 13.23 3.38 13.38 3.12 C 13.45 3.01 13.52 2.88 13.59 2.74 C 13.83 2.84 14.06 2.95 14.28 3.07 C 14.06 3.26 13.91 3.54 13.91 3.85 C 13.91 4.75 14.2 5.25 14.42 5.61 C 14.57 5.88 14.64 6 14.64 6.35 C 14.64 6.69 14.57 6.82 14.42 7.08 C 14.2 7.44 13.91 7.94 13.91 8.84 C 13.91 9.74 14.2 10.23 14.42 10.6 C 14.57 10.86 14.64 10.98 14.64 11.33 C 14.64 11.68 14.57 11.8 14.42 12.07 C 14.2 12.43 13.91 12.93 13.91 13.83 C 13.91 14.38 14.36 14.84 14.92 14.84 C 15.47 14.84 15.92 14.38 15.92 13.83 C 15.92 13.48 15.99 13.36 16.15 13.09 C 16.36 12.73 16.65 12.23 16.65 11.33 C 16.65 10.43 16.36 9.94 16.15 9.57 C 15.99 9.31 15.92 9.19 15.92 8.84 C 15.92 8.49 15.99 8.37 16.15 8.1 C 16.36 7.74 16.65 7.24 16.65 6.35 C 16.65 5.45 16.36 4.95 16.15 4.59 C 16.08 4.48 16.03 4.39 16 4.3 C 16.09 4.39 16.18 4.47 16.26 4.56 C 19.74 8.12 20 14.44 19.95 16.99 C 19.95 17.06 19.95 17.12 19.95 17.15 C 19.95 17.26 19.93 17.32 19.92 17.35 C 19.89 17.36 19.81 17.38 19.69 17.38 L 18.29 17.38 C 17.74 17.38 17.29 17.83 17.29 18.38 L 17.29 23.21 C 17.29 23.83 17.29 24.54 15.33 24.54 C 14.58 24.54 14.2 24.54 14.01 24.54 C 12.89 24.56 12.83 25.39 12.83 25.56 C 12.83 26.74 12.83 28.52 12.83 28.75 C 12.81 29.18 13.07 29.59 13.5 29.74 C 13.61 29.78 13.72 29.8 13.84 29.8 C 14.25 29.8 14.64 29.54 14.78 29.13 C 14.84 28.97 14.84 28.95 14.84 26.56 C 14.98 26.56 15.15 26.56 15.33 26.56 C 17.93 26.56 19.3 25.4 19.3 23.21 L 19.3 19.39 L 19.69 19.39 C 21.07 19.39 21.96 18.52 21.96 17.15 C 21.96 17.13 21.96 17.09 21.96 17.03 C 22.01 14.22 21.71 7.25 17.7 3.15 Z M 2.74 16.32 C 2.74 15.42 2.45 14.93 2.24 14.56 C 2.08 14.3 2.01 14.18 2.01 13.83 C 2.01 13.48 2.08 13.36 2.24 13.09 C 2.29 13 2.36 12.89 2.42 12.76 C 2.67 12.27 2.47 11.66 1.97 11.41 C 1.48 11.16 0.87 11.36 0.62 11.86 C 0.59 11.93 0.54 12 0.5 12.07 C 0.29 12.43 0 12.93 0 13.83 C 0 14.73 0.29 15.22 0.5 15.59 C 0.66 15.85 0.73 15.97 0.73 16.32 C 0.73 16.67 0.66 16.79 0.5 17.06 C 0.29 17.42 0 17.92 0 18.81 C 0 19.71 0.29 20.21 0.5 20.57 C 0.66 20.84 0.73 20.96 0.73 21.31 C 0.73 21.66 0.66 21.78 0.5 22.04 C 0.29 22.41 0 22.9 0 23.8 C 0 24.7 0.29 25.2 0.5 25.56 C 0.66 25.83 0.73 25.95 0.73 26.3 C 0.73 26.64 0.66 26.77 0.5 27.03 C 0.29 27.39 0 27.89 0 28.79 C 0 29.35 0.45 29.8 1.01 29.8 C 1.56 29.8 2.01 29.35 2.01 28.79 C 2.01 28.44 2.08 28.32 2.24 28.05 C 2.45 27.69 2.74 27.19 2.74 26.3 C 2.74 25.4 2.45 24.9 2.24 24.54 C 2.08 24.27 2.01 24.15 2.01 23.8 C 2.01 23.45 2.08 23.33 2.24 23.07 C 2.45 22.7 2.74 22.21 2.74 21.31 C 2.74 20.41 2.45 19.91 2.24 19.55 C 2.08 19.29 2.01 19.16 2.01 18.82 C 2.01 18.47 2.08 18.35 2.24 18.08 C 2.45 17.72 2.74 17.22 2.74 16.32 Z M 2.74 16.32" />
</svg>