<?xml version="1.0" encoding="utf-8"?>
<!-- Generator: Avocode 2.5.2 - http://avocode.com -->
<svg height="30" width="24" xmlns:xlink="http://www.w3.org/1999/xlink" xmlns="http://www.w3.org/2000/svg" viewBox="0 0 24 30">
    <path fill="#c4c4c4" fill-rule="evenodd" d="M 19.54 3.15 C 18.93 2.53 18.26 2.01 17.54 1.57 C 17.41 1.17 17.02 0.87 16.57 0.87 C 16.46 0.87 16.35 0.89 16.26 0.92 C 14.82 0.31 13.21 0 11.42 0 C 9.66 0 8.06 0.33 6.64 0.98 C 6.5 0.91 6.35 0.87 6.19 0.87 C 5.65 0.87 5.21 1.29 5.17 1.81 C 3.53 2.93 2.22 4.54 1.33 6.61 C -1.08 12.18 0.04 19.59 2.61 22.26 C 4.59 24.3 4.08 28.62 4.07 28.67 C 4.01 29.22 4.4 29.72 4.96 29.79 C 5.52 29.86 6.03 29.47 6.1 28.91 C 6.12 28.7 6.73 23.61 4.09 20.86 C 2.23 18.93 1.03 12.43 3.2 7.41 C 3.72 6.21 4.54 4.89 5.8 3.86 C 5.87 4.01 5.91 4.14 5.91 4.37 C 5.91 4.72 5.84 4.84 5.68 5.11 C 5.46 5.47 5.17 5.97 5.17 6.87 C 5.17 7.77 5.46 8.26 5.68 8.63 C 5.84 8.89 5.91 9.01 5.91 9.36 C 5.91 9.71 5.84 9.83 5.68 10.09 C 5.46 10.46 5.17 10.95 5.17 11.85 C 5.17 12.41 5.62 12.86 6.19 12.86 C 6.75 12.86 7.21 12.41 7.21 11.85 C 7.21 11.5 7.28 11.38 7.43 11.12 C 7.65 10.76 7.95 10.26 7.95 9.36 C 7.95 8.46 7.65 7.96 7.43 7.6 C 7.28 7.34 7.21 7.21 7.21 6.87 C 7.21 6.52 7.28 6.4 7.43 6.13 C 7.65 5.77 7.95 5.27 7.95 4.37 C 7.95 3.61 7.73 3.14 7.54 2.79 C 7.89 2.63 8.26 2.5 8.66 2.38 C 8.75 2.97 8.97 3.35 9.14 3.64 C 9.3 3.9 9.37 4.02 9.37 4.37 C 9.37 4.72 9.3 4.84 9.14 5.11 C 8.92 5.47 8.63 5.97 8.63 6.87 C 8.63 7.77 8.92 8.26 9.14 8.63 C 9.3 8.89 9.37 9.01 9.37 9.36 C 9.37 9.71 9.3 9.83 9.14 10.09 C 8.92 10.46 8.63 10.95 8.63 11.85 C 8.63 12.41 9.08 12.86 9.65 12.86 C 10.21 12.86 10.67 12.41 10.67 11.85 C 10.67 11.5 10.74 11.38 10.9 11.12 C 11.11 10.76 11.41 10.26 11.41 9.36 C 11.41 8.46 11.11 7.96 10.9 7.6 C 10.74 7.34 10.67 7.21 10.67 6.87 C 10.67 6.52 10.74 6.4 10.9 6.13 C 11.11 5.77 11.41 5.27 11.41 4.37 C 11.41 3.48 11.11 2.98 10.9 2.61 C 10.77 2.4 10.69 2.27 10.67 2.04 C 10.92 2.03 11.16 2.02 11.42 2.02 C 11.65 2.02 11.87 2.03 12.09 2.04 C 12.13 2.83 12.4 3.3 12.6 3.64 C 12.76 3.9 12.83 4.02 12.83 4.37 C 12.83 4.72 12.76 4.84 12.6 5.11 C 12.38 5.47 12.09 5.97 12.09 6.87 C 12.09 7.76 12.38 8.26 12.6 8.62 C 12.76 8.89 12.83 9.01 12.83 9.36 C 12.83 9.71 12.76 9.83 12.6 10.09 C 12.38 10.46 12.09 10.95 12.09 11.85 C 12.09 12.41 12.54 12.86 13.11 12.86 C 13.67 12.86 14.13 12.41 14.13 11.85 C 14.13 11.5 14.2 11.38 14.36 11.12 C 14.57 10.76 14.87 10.26 14.87 9.36 C 14.87 8.46 14.57 7.96 14.36 7.6 C 14.2 7.34 14.13 7.21 14.13 6.87 C 14.13 6.52 14.2 6.4 14.36 6.13 C 14.57 5.77 14.87 5.27 14.87 4.37 C 14.87 3.47 14.57 2.98 14.36 2.61 C 14.3 2.52 14.25 2.44 14.22 2.36 C 14.74 2.49 15.23 2.67 15.7 2.89 C 15.81 3.2 15.94 3.44 16.06 3.64 C 16.22 3.9 16.29 4.02 16.29 4.37 C 16.29 4.72 16.22 4.84 16.06 5.11 C 15.84 5.47 15.55 5.97 15.55 6.87 C 15.55 7.76 15.84 8.26 16.06 8.62 C 16.22 8.89 16.29 9.01 16.29 9.36 C 16.29 9.71 16.22 9.83 16.06 10.09 C 15.84 10.46 15.55 10.95 15.55 11.85 C 15.55 12.41 16.01 12.86 16.57 12.86 C 17.13 12.86 17.59 12.41 17.59 11.85 C 17.59 11.5 17.66 11.38 17.82 11.12 C 18.03 10.75 18.33 10.26 18.33 9.36 C 18.33 8.46 18.03 7.96 17.82 7.6 C 17.66 7.34 17.59 7.21 17.59 6.87 C 17.59 6.52 17.66 6.4 17.82 6.13 C 18 5.83 18.23 5.43 18.3 4.79 C 21.62 8.39 21.87 14.49 21.82 16.99 C 21.82 17.07 21.82 17.12 21.82 17.16 C 21.82 17.26 21.81 17.32 21.8 17.35 C 21.76 17.36 21.69 17.38 21.56 17.38 L 20.14 17.38 C 19.58 17.38 19.12 17.83 19.12 18.39 L 19.12 23.21 C 19.12 23.83 19.12 24.54 17.14 24.54 C 16.33 24.54 15.99 24.53 15.86 24.52 C 15.71 24.49 15.56 24.49 15.41 24.52 C 14.9 24.63 14.55 25.1 14.6 25.62 C 14.6 25.62 14.6 25.63 14.6 25.63 C 14.61 26.83 14.61 28.53 14.61 28.75 C 14.59 29.18 14.85 29.59 15.28 29.74 C 15.39 29.78 15.51 29.8 15.62 29.8 C 16.04 29.8 16.43 29.54 16.58 29.13 C 16.64 28.98 16.65 28.96 16.65 26.56 C 16.8 26.56 16.96 26.56 17.14 26.56 C 19.77 26.56 21.16 25.4 21.16 23.21 L 21.16 19.4 L 21.56 19.4 C 22.96 19.4 23.86 18.52 23.86 17.16 C 23.86 17.13 23.86 17.09 23.86 17.03 C 23.92 14.22 23.61 7.25 19.54 3.15 L 19.54 3.15 Z M 19.54 3.15" />
</svg>