<?xml version="1.0" encoding="utf-8"?>
<!-- Generator: Avocode 2.5.2 - http://avocode.com -->
<svg height="30" width="22" xmlns:xlink="http://www.w3.org/1999/xlink" xmlns="http://www.w3.org/2000/svg" viewBox="0 0 22 30">
    <path fill="#c4c4c4" fill-rule="evenodd" d="M 17.33 3.15 C 15.29 1.06 12.6 0 9.33 0 C 6.48 0 4.2 0.86 2.57 2.55 C -0.11 5.33 0 9.33 0 9.5 C 0.02 10.05 0.48 10.49 1.04 10.47 C 1.59 10.45 2.03 9.99 2.01 9.43 C 2.01 9.4 1.94 6.1 4.03 3.94 C 5.27 2.67 7.05 2.02 9.33 2.02 C 12.04 2.02 14.25 2.87 15.9 4.56 C 19.37 8.12 19.63 14.44 19.58 16.99 C 19.58 17.07 19.58 17.12 19.58 17.16 C 19.58 17.26 19.57 17.32 19.56 17.35 C 19.52 17.36 19.45 17.38 19.32 17.38 L 17.93 17.38 C 17.37 17.38 16.92 17.83 16.92 18.39 L 16.92 23.21 C 16.92 23.84 16.92 24.54 14.97 24.54 C 14.21 24.54 13.83 24.54 13.64 24.55 C 12.52 24.56 12.46 25.39 12.46 25.56 C 12.47 26.74 12.47 28.52 12.47 28.75 C 12.45 29.18 12.71 29.59 13.13 29.74 C 13.24 29.78 13.36 29.8 13.47 29.8 C 13.88 29.8 14.27 29.54 14.42 29.13 C 14.47 28.98 14.48 28.96 14.48 26.56 C 14.62 26.56 14.78 26.56 14.97 26.56 C 17.56 26.56 18.93 25.4 18.93 23.21 L 18.93 19.4 L 19.32 19.4 C 20.7 19.4 21.59 18.52 21.59 17.16 C 21.59 17.13 21.59 17.09 21.59 17.03 C 21.65 14.22 21.34 7.25 17.33 3.15 Z M 1.01 11.55 C 0.45 11.55 0 12 0 12.56 L 0 28.79 C 0 29.35 0.45 29.8 1.01 29.8 C 1.56 29.8 2.01 29.35 2.01 28.79 L 2.01 12.56 C 2.01 12 1.56 11.55 1.01 11.55 Z M 3.77 11.55 C 3.21 11.55 2.76 12 2.76 12.56 L 2.76 28.79 C 2.76 29.35 3.21 29.8 3.77 29.8 C 4.32 29.8 4.78 29.35 4.78 28.79 L 4.78 12.56 C 4.78 12 4.32 11.55 3.77 11.55 Z M 6.53 11.55 C 5.98 11.55 5.53 12 5.53 12.56 L 5.53 28.79 C 5.53 29.35 5.98 29.8 6.53 29.8 C 7.09 29.8 7.54 29.35 7.54 28.79 L 7.54 12.56 C 7.54 12 7.09 11.55 6.53 11.55 Z M 9.3 11.55 C 8.74 11.55 8.29 12 8.29 12.56 L 8.29 28.79 C 8.29 29.35 8.74 29.8 9.3 29.8 C 9.85 29.8 10.3 29.35 10.3 28.79 L 10.3 12.56 C 10.3 12 9.85 11.55 9.3 11.55 Z M 3.77 10.09 C 4.33 10.09 4.77 9.64 4.77 9.08 C 4.77 8.52 4.33 8.07 3.77 8.07 C 3.21 8.07 2.76 8.52 2.76 9.08 C 2.76 9.64 3.21 10.09 3.77 10.09 Z M 6.53 4.04 C 5.98 4.04 5.53 4.49 5.53 5.05 C 5.53 5.6 5.98 6.06 6.53 6.06 C 7.09 6.06 7.54 5.6 7.54 5.05 C 7.54 4.49 7.09 4.04 6.53 4.04 Z M 6.53 8.07 C 5.98 8.07 5.53 8.52 5.53 9.08 C 5.53 9.64 5.98 10.09 6.53 10.09 C 7.09 10.09 7.54 9.64 7.54 9.08 C 7.54 8.52 7.09 8.07 6.53 8.07 Z M 9.3 6.06 C 9.85 6.06 10.3 5.6 10.3 5.05 C 10.3 4.49 9.85 4.04 9.3 4.04 C 8.74 4.04 8.29 4.49 8.29 5.05 C 8.29 5.6 8.74 6.06 9.3 6.06 Z M 9.3 10.09 C 9.85 10.09 10.3 9.64 10.3 9.08 C 10.3 8.52 9.85 8.07 9.3 8.07 C 8.74 8.07 8.29 8.52 8.29 9.08 C 8.29 9.64 8.74 10.09 9.3 10.09 Z M 9.3 10.09" />
</svg>