<?xml version="1.0" encoding="utf-8"?>
<!-- Generator: Avocode 2.5.2 - http://avocode.com -->
<svg height="39" width="23" xmlns:xlink="http://www.w3.org/1999/xlink" xmlns="http://www.w3.org/2000/svg" viewBox="0 0 23 39">
    <path fill="#c4c4c4" fill-rule="evenodd" d="M 18.73 12.79 C 18.15 12.2 17.52 11.7 16.85 11.28 C 16.96 11.12 17.03 10.92 17.03 10.71 C 17.03 10.37 17.1 10.25 17.25 9.99 C 17.46 9.64 17.74 9.15 17.74 8.28 C 17.74 7.4 17.46 6.92 17.25 6.56 C 17.1 6.3 17.03 6.18 17.03 5.84 C 17.03 5.51 17.1 5.39 17.25 5.13 C 17.46 4.77 17.74 4.29 17.74 3.41 C 17.74 2.54 17.46 2.05 17.25 1.7 C 17.1 1.44 17.03 1.32 17.03 0.98 C 17.03 0.44 16.6 0 16.06 0 C 15.52 0 15.08 0.44 15.08 0.98 C 15.08 1.86 15.36 2.34 15.57 2.7 C 15.72 2.96 15.79 3.07 15.79 3.41 C 15.79 3.75 15.72 3.87 15.57 4.13 C 15.36 4.48 15.08 4.97 15.08 5.85 C 15.08 6.72 15.36 7.21 15.57 7.56 C 15.72 7.82 15.79 7.94 15.79 8.28 C 15.79 8.62 15.72 8.73 15.57 8.99 C 15.39 9.31 15.14 9.72 15.09 10.42 C 14.7 10.28 14.31 10.16 13.9 10.06 C 13.91 10.04 13.92 10.01 13.94 9.99 C 14.14 9.64 14.43 9.15 14.43 8.28 C 14.43 7.4 14.14 6.92 13.94 6.56 C 13.79 6.3 13.72 6.18 13.72 5.84 C 13.72 5.51 13.79 5.39 13.94 5.13 C 14.14 4.77 14.43 4.29 14.43 3.41 C 14.43 2.54 14.14 2.05 13.94 1.7 C 13.79 1.44 13.72 1.32 13.72 0.98 C 13.72 0.44 13.28 0 12.74 0 C 12.2 0 11.76 0.44 11.76 0.98 C 11.76 1.86 12.05 2.34 12.25 2.7 C 12.4 2.96 12.47 3.07 12.47 3.41 C 12.47 3.75 12.4 3.87 12.25 4.13 C 12.04 4.48 11.76 4.97 11.76 5.85 C 11.76 6.72 12.04 7.21 12.25 7.56 C 12.4 7.82 12.47 7.94 12.47 8.28 C 12.47 8.62 12.4 8.73 12.25 8.99 C 12.14 9.19 12 9.43 11.9 9.76 C 11.59 9.74 11.27 9.72 10.94 9.72 C 10.89 9.72 10.83 9.72 10.77 9.73 C 10.94 9.4 11.11 8.95 11.11 8.28 C 11.11 7.4 10.83 6.92 10.62 6.56 C 10.47 6.3 10.4 6.18 10.4 5.84 C 10.4 5.51 10.47 5.39 10.62 5.13 C 10.83 4.77 11.11 4.29 11.11 3.41 C 11.11 2.54 10.83 2.05 10.62 1.7 C 10.47 1.44 10.4 1.32 10.4 0.98 C 10.4 0.44 9.96 0 9.42 0 C 8.88 0 8.45 0.44 8.45 0.98 C 8.45 1.86 8.73 2.34 8.94 2.7 C 9.09 2.96 9.16 3.07 9.16 3.41 C 9.16 3.75 9.09 3.87 8.94 4.13 C 8.73 4.48 8.45 4.97 8.45 5.85 C 8.45 6.72 8.73 7.21 8.94 7.56 C 9.09 7.82 9.16 7.94 9.16 8.28 C 9.16 8.62 9.09 8.73 8.94 8.99 C 8.8 9.23 8.62 9.53 8.53 9.97 C 8.04 10.07 7.57 10.2 7.12 10.37 C 7.16 10.24 7.22 10.14 7.3 9.99 C 7.51 9.64 7.79 9.15 7.79 8.28 C 7.79 7.4 7.51 6.91 7.3 6.56 C 7.15 6.3 7.08 6.18 7.08 5.84 C 7.08 5.5 7.15 5.39 7.3 5.13 C 7.51 4.77 7.79 4.29 7.79 3.41 C 7.79 2.54 7.51 2.05 7.3 1.7 C 7.15 1.44 7.08 1.32 7.08 0.98 C 7.08 0.44 6.65 0 6.11 0 C 5.57 0 5.13 0.44 5.13 0.98 C 5.13 1.86 5.41 2.34 5.62 2.7 C 5.77 2.96 5.84 3.07 5.84 3.41 C 5.84 3.75 5.77 3.87 5.62 4.13 C 5.41 4.48 5.13 4.97 5.13 5.85 C 5.13 6.72 5.41 7.21 5.62 7.56 C 5.77 7.82 5.84 7.94 5.84 8.28 C 5.84 8.62 5.77 8.73 5.62 8.99 C 5.41 9.35 5.13 9.83 5.13 10.71 C 5.13 10.91 5.19 11.1 5.3 11.26 C 3.57 12.35 2.19 14.01 1.27 16.17 C -1.03 21.6 0.04 28.83 2.51 31.42 C 4.39 33.42 3.91 37.63 3.9 37.67 C 3.84 38.21 4.22 38.7 4.75 38.77 C 5.29 38.84 5.78 38.45 5.84 37.91 C 5.87 37.7 6.45 32.74 3.92 30.07 C 2.13 28.18 0.99 21.84 3.07 16.95 C 4.09 14.55 6.28 11.69 10.94 11.69 C 13.58 11.69 15.73 12.53 17.33 14.17 C 20.71 17.64 20.96 23.8 20.91 26.29 C 20.91 26.36 20.91 26.42 20.91 26.45 C 20.91 26.55 20.9 26.61 20.89 26.64 C 20.86 26.65 20.78 26.67 20.66 26.67 L 19.3 26.67 C 18.76 26.67 18.33 27.11 18.33 27.65 L 18.33 32.36 C 18.33 32.96 18.33 33.65 16.43 33.65 C 15.65 33.65 15.33 33.64 15.2 33.63 C 15.06 33.6 14.91 33.6 14.77 33.63 C 14.28 33.73 13.94 34.2 13.99 34.7 C 13.99 34.7 14 34.71 14 34.72 C 14 35.88 14 37.54 14 37.75 C 13.98 38.17 14.23 38.57 14.64 38.72 C 14.75 38.76 14.86 38.78 14.97 38.78 C 15.37 38.78 15.75 38.53 15.89 38.13 C 15.95 37.97 15.95 37.96 15.95 35.62 C 16.1 35.62 16.26 35.62 16.43 35.62 C 18.95 35.62 20.28 34.49 20.28 32.36 L 20.28 28.63 L 20.66 28.63 C 22 28.63 22.87 27.78 22.87 26.45 C 22.87 26.43 22.87 26.38 22.87 26.33 C 22.92 23.59 22.62 16.79 18.73 12.79 L 18.73 12.79 Z M 18.73 12.79" />
</svg>