<?xml version="1.0" encoding="utf-8"?>
<!-- Generator: Avocode 2.5.2 - http://avocode.com -->
<svg height="39" width="28" xmlns:xlink="http://www.w3.org/1999/xlink" xmlns="http://www.w3.org/2000/svg" viewBox="0 0 28 39">
    <path fill="#c4c4c4" fill-rule="evenodd" d="M 27.89 12.04 C 27.89 9.96 26.55 8.15 24.68 7.49 C 24.72 7.23 24.75 6.96 24.75 6.7 C 24.75 4.04 22.6 1.88 19.97 1.88 C 19.59 1.88 19.21 1.92 18.84 2.01 C 17.96 0.77 16.52 0 14.97 0 C 12.78 0 10.93 1.46 10.37 3.52 C 9.51 3.68 8.71 4.07 8.05 4.66 C 7.86 4.64 7.67 4.62 7.48 4.62 C 4.85 4.62 2.7 6.79 2.7 9.45 C 2.7 9.69 2.72 9.93 2.76 10.17 C 1.75 11.08 1.17 12.37 1.17 13.76 C 1.17 14.13 1.21 14.5 1.3 14.85 C 0.47 15.74 0 16.91 0 18.16 C 0 20.15 1.21 21.87 2.93 22.6 C 3.02 26.19 4.04 29.47 5.55 31.08 C 7.54 33.18 7.03 37.62 7.02 37.67 C 6.95 38.24 7.35 38.75 7.92 38.83 C 8.48 38.9 8.99 38.49 9.06 37.92 C 9.09 37.7 9.7 32.46 7.04 29.64 C 5.99 28.53 5.15 25.94 5 22.97 C 6.19 22.91 7.3 22.41 8.14 21.57 C 8.64 21.74 9.16 21.83 9.69 21.83 C 10.64 21.83 11.55 21.55 12.33 21.03 C 13.1 21.55 14.01 21.83 14.96 21.83 C 17.42 21.83 19.45 19.94 19.71 17.53 C 20.25 17.25 20.73 16.88 21.12 16.42 C 21.74 16.71 22.42 16.86 23.12 16.86 C 23.27 16.86 23.42 16.86 23.56 16.84 C 24.82 20.15 24.94 23.84 24.91 25.66 C 24.91 25.74 24.9 25.79 24.9 25.83 C 24.9 25.93 24.89 26 24.88 26.03 C 24.85 26.04 24.77 26.06 24.64 26.06 L 23.21 26.06 C 22.65 26.06 22.19 26.52 22.19 27.09 L 22.19 32.06 C 22.19 32.7 22.19 33.42 20.19 33.42 C 19.37 33.42 19.03 33.41 18.9 33.41 C 18.75 33.37 18.6 33.37 18.44 33.4 C 17.93 33.51 17.58 34 17.63 34.53 C 17.63 34.54 17.63 34.54 17.63 34.55 C 17.64 35.78 17.64 37.52 17.63 37.75 C 17.62 38.19 17.87 38.6 18.3 38.77 C 18.42 38.81 18.54 38.83 18.66 38.83 C 19.08 38.83 19.47 38.58 19.62 38.16 C 19.68 38 19.69 37.98 19.69 35.5 C 19.84 35.5 20.01 35.5 20.19 35.5 C 22.84 35.5 24.24 34.31 24.24 32.06 L 24.24 28.13 L 24.64 28.13 C 26.05 28.13 26.96 27.23 26.96 25.83 C 26.96 25.8 26.96 25.76 26.96 25.7 C 27 23.75 26.87 19.84 25.51 16.21 C 26.93 15.37 27.89 13.82 27.89 12.04 L 27.89 12.04 Z M 27.89 12.04" />
</svg>