<?xml version="1.0" encoding="utf-8"?>
<!-- Generator: Avocode 2.5.2 - http://avocode.com -->
<svg height="30" width="30" xmlns:xlink="http://www.w3.org/1999/xlink" xmlns="http://www.w3.org/2000/svg" viewBox="0 0 30 30">
    <path fill="#c4c4c4" fill-rule="evenodd" d="M 28.26 8.84 C 28.17 8.62 27.98 8.23 27.85 7.95 C 27.85 7.95 27.85 7.95 27.85 7.95 C 28.2 6.43 27.79 4.86 26.67 3.5 C 24.67 1.07 20.84 -0.34 17.34 0.07 C 13.85 0.48 10.31 2.94 8.32 6.32 C 6.59 9.28 6.22 12.57 7.23 15.71 L 0.6 18.68 C 0.09 18.91 -0.14 19.51 0.09 20.02 C 0.26 20.4 0.63 20.62 1.01 20.62 C 1.15 20.62 1.29 20.59 1.43 20.53 L 7.94 17.62 C 8 20.65 9.56 22.28 10.13 22.88 C 11.96 24.79 11.49 28.83 11.48 28.87 C 11.42 29.39 11.78 29.86 12.3 29.93 C 12.82 29.99 13.29 29.62 13.35 29.11 C 13.38 28.9 13.94 24.14 11.5 21.58 C 10.97 21.02 9.61 19.6 9.85 16.76 L 26.42 9.34 C 26.46 9.43 26.5 9.51 26.52 9.57 C 27.47 11.84 27.97 14.82 27.91 17.96 C 27.9 18.03 27.9 18.08 27.9 18.11 C 27.9 18.21 27.89 18.26 27.88 18.29 C 27.85 18.3 27.78 18.32 27.66 18.32 L 26.35 18.32 C 25.83 18.32 25.41 18.74 25.41 19.26 L 25.41 23.77 C 25.41 24.36 25.41 25.01 23.57 25.01 C 22.82 25.01 22.51 25.01 22.39 25 C 22.25 24.97 22.11 24.97 21.97 25 C 21.5 25.1 21.17 25.54 21.22 26.02 C 21.22 26.03 21.22 26.03 21.23 26.04 C 21.23 27.16 21.23 28.74 21.23 28.95 C 21.21 29.35 21.45 29.73 21.85 29.88 C 21.96 29.91 22.06 29.93 22.17 29.93 C 22.56 29.93 22.92 29.69 23.06 29.31 C 23.11 29.16 23.11 29.15 23.11 26.9 C 23.25 26.9 23.41 26.9 23.57 26.9 C 26.01 26.9 27.29 25.82 27.29 23.77 L 27.29 20.2 L 27.66 20.2 C 28.95 20.2 29.79 19.38 29.79 18.11 C 29.79 18.09 29.79 18.05 29.79 17.99 C 29.86 14.6 29.31 11.35 28.26 8.84 L 28.26 8.84 Z M 8.97 14.94 C 8.2 12.37 8.54 9.69 9.95 7.28 C 11.65 4.38 14.64 2.29 17.56 1.94 C 20.41 1.61 23.63 2.77 25.21 4.69 C 25.7 5.29 26.21 6.21 26.05 7.29 L 8.97 14.94 L 8.97 14.94 Z M 8.97 14.94" />
</svg>