<?xml version="1.0" encoding="utf-8"?>
<!-- Generator: Avocode 2.5.2 - http://avocode.com -->
<svg height="95" width="95" xmlns:xlink="http://www.w3.org/1999/xlink" xmlns="http://www.w3.org/2000/svg" viewBox="0 0 95 95">
    <path fill="#ffe400" fill-rule="evenodd" d="M 42 83.5 C 64.92 83.5 83.5 64.92 83.5 42 C 83.5 19.08 64.92 0.5 42 0.5 C 19.08 0.5 0.5 19.08 0.5 42 C 0.5 64.92 19.08 83.5 42 83.5 L 42 83.5 Z M 42 76.5 C 22.95 76.5 7.5 61.05 7.5 42 C 7.5 22.95 22.95 7.5 42 7.5 C 61.05 7.5 76.5 22.95 76.5 42 C 76.5 61.05 61.05 76.5 42 76.5 L 42 76.5 Z M 42 76.5" />
    <path fill="#ffe400" fill-rule="evenodd" d="M 38.68 27.25 C 38.68 25.41 40.17 23.92 42 23.92 L 42 23.92 C 43.83 23.92 45.32 25.41 45.32 27.25 L 45.32 57.49 C 45.32 59.33 43.83 60.82 42 60.82 L 42 60.82 C 40.17 60.82 38.68 59.32 38.68 57.49 L 38.68 27.25 Z M 38.68 27.25" />
    <path fill="#ffe400" fill-rule="evenodd" d="M 57.12 39.05 C 58.96 39.05 60.45 40.54 60.45 42.37 L 60.45 42.37 C 60.45 44.2 58.95 45.69 57.12 45.69 L 26.88 45.69 C 25.04 45.69 23.55 44.2 23.55 42.37 L 23.55 42.37 C 23.55 40.54 25.05 39.05 26.88 39.05 L 57.12 39.05 L 57.12 39.05 Z M 57.12 39.05" />
    <path fill="#ffe400" fill-rule="evenodd" d="M 95.52 77.07 C 97.35 77.07 98.84 78.56 98.84 80.39 L 98.84 80.39 C 98.84 82.23 97.35 83.71 95.52 83.71 L 65.27 83.71 C 63.43 83.71 61.94 82.22 61.94 80.39 L 61.94 80.39 C 61.94 78.56 63.44 77.07 65.27 77.07 L 95.52 77.07 L 95.52 77.07 Z M 95.52 77.07" />
</svg>